<svg viewBox="0 0 124 124" xml:space="preserve" xmlns="http://www.w3.org/2000/svg" enable-background="new 0 0 124 124"><path d="M86.9 48.7C66 48.7 66 69.5 66 69.6c0 0-1.4 20.8 20.9 20.8 0 0 16.8 1 18.5-12.3.1-1.2-.8-2.2-1.9-2.2h-5.8c-.8 0-1.6.5-1.9 1.4-.5 1.7-2.3 4.5-8.5 4.5 0 0-8.1.5-9.4-7.2-.2-1.2.7-2.2 1.9-2.2H104c1 0 1.9-.8 1.9-1.9.2-5.6-.8-21.8-19-21.8zm-8 16.3c-.8 0-1.3-.7-1.1-1.5.8-2.4 3.1-6.9 9.2-6.9 6.3 0 7.8 4.7 8.2 7.1.1.7-.4 1.3-1.1 1.3H78.9zm-25-4.8c-.7-.2-.8-1.2-.1-1.5 2.3-1.2 5.1-3.8 5.1-9.4 0-9.7-6.8-14.5-15.4-14.5h-27c-.8 0-1.4.6-1.4 1.4v51.6c0 .8.6 1.4 1.4 1.4h26.9s17.3.5 17.3-16.1c0 .1.6-10.5-6.8-12.9zM27.5 45.5c0-.6.5-1 1-1h14.8s3.8 0 3.8 5.7-2.3 6.5-4.8 6.5H28.6c-.6 0-1-.5-1-1V45.5zm15.1 34.1h-14c-.6 0-1-.5-1-1V66.1c0-.6.5-1 1-1h14.8s5.8-.1 5.7 7.5c0 6.3-4.3 6.9-6.5 7zM75.1 37v4.7c0 .6.5 1 1 1h20.4c.6 0 1-.5 1-1V37c0-.6-.5-1-1-1H76.2c-.6-.1-1.1.4-1.1 1z" fill="#ffffff" class="fill-333033"></path></svg>