<?xml version="1.0" encoding="UTF-8"?>
<svg version="1.1" viewBox="0 0 1600 1600" width="1280" height="1280" xmlns="http://www.w3.org/2000/svg">
<path transform="translate(767 15.9)" d="m0 0c0.798-0.00175 1.6-0.0035 2.42-0.00531 2.65-0.00441 5.29-0.00148 7.94 0.00189 1.83-6.73e-4 3.67-0.00164 5.5-0.0029 3.84-0.00148 7.69 6.74e-4 11.5 0.00534 4.94 0.0057 9.88 0.00242 14.8-0.00357 3.79-0.00361 7.57-0.00247 11.4 1.28e-4 1.82 6.69e-4 3.64-1.59e-4 5.47-0.00248 2.54-0.00253 5.08 0.00131 7.62 0.0069 1.14-0.00304 1.14-0.00304 2.3-0.00613 5.19 0.0213 5.19 0.0213 6.31 1.14 3.11 0.292 6.21 0.525 9.34 0.719 0.949 0.0628 1.9 0.126 2.88 0.19 3.05 0.201 6.11 0.396 9.16 0.591 3.02 0.196 6.04 0.393 9.06 0.591 1.88 0.123 3.76 0.245 5.64 0.364 4.68 0.303 9.36 0.641 14 1.03 1.37 0.112 1.37 0.112 2.77 0.226 2.13 0.291 2.13 0.291 3.13 1.29 2.44 0.349 4.87 0.643 7.32 0.902 1.52 0.17 3.04 0.34 4.56 0.51 2.4 0.263 4.8 0.524 7.2 0.783 2.31 0.251 4.62 0.51 6.94 0.77 0.71 0.074 1.42 0.148 2.15 0.224 4.19 0.475 7.87 1.42 11.8 2.81 1.64 0.308 3.28 0.571 4.93 0.781 0.897 0.12 1.79 0.24 2.72 0.363 0.92 0.117 1.84 0.235 2.79 0.355 6.04 0.774 11.7 1.73 17.6 3.5 2.31 0.482 4.62 0.94 6.94 1.38 12.6 2.46 25 5.83 37.3 9.41 5.33 1.54 10.7 3.01 16 4.41 5.06 1.33 9.82 2.91 14.7 4.81 1.58 0.493 3.16 0.971 4.75 1.44 18.2 5.36 35.8 12.2 53.3 19.6 4.1 1.73 8.2 3.44 12.3 5.05 4.9 1.94 9.66 4.16 14.4 6.39 2.72 1.27 5.45 2.51 8.19 3.74 2 0.913 4 1.83 6 2.75 0.716 0.33 1.43 0.659 2.17 0.999 13.9 6.44 27.4 13.5 40.8 21 0.989 0.552 1.98 1.1 3 1.67 11.1 6.22 22.2 12.5 33 19.3 1.11 0.704 2.22 1.41 3.36 2.13 11.4 7.27 22.8 14.6 33.6 22.7 3.01 2.19 6.05 4.33 9.11 6.46 7.93 5.54 15.6 11.3 23.2 17.4 1.77 1.41 3.56 2.8 5.35 4.18 6.14 4.76 12.1 9.61 17.8 14.9 2.97 2.69 6 5.29 9.06 7.88 0.546 0.463 1.09 0.925 1.66 1.4 4.28 3.61 8.67 7.08 13.1 10.5l1.73 1.56v2c0.99 0.33 1.98 0.66 3 1v2l1.71 0.719c2.79 1.56 4.64 3.48 6.85 5.78 2.43 2.53 4.51 4.55 7.44 6.5v2c0.885 0.39 0.885 0.39 1.79 0.788 2.36 1.29 3.79 2.63 5.61 4.6 0.638 0.684 1.28 1.37 1.93 2.07 0.675 0.735 1.35 1.47 2.04 2.23 0.702 0.757 1.4 1.51 2.13 2.29 1.45 1.57 2.91 3.14 4.36 4.71 2.01 2.17 4.03 4.33 6.06 6.49 5.81 6.18 11.6 12.4 17.1 18.8 1.06 1.21 2.12 2.42 3.19 3.62 3.36 3.84 6.68 7.7 10 11.6 0.767 0.892 0.767 0.892 1.55 1.8 8.26 9.64 8.26 9.64 8.26 12 0.99 0.33 1.98 0.66 3 1 0.957 1.37 1.9 2.74 2.79 4.15 2.43 3.71 5.28 7.12 8.02 10.6 4.36 5.56 8.64 11.1 12.6 17 1.78 2.59 3.64 5.12 5.5 7.65 3.52 4.82 6.85 9.75 10.1 14.7 1.76 2.63 3.58 5.2 5.43 7.77 3.16 4.47 5.85 9.16 8.51 13.9 2.57 4.57 5.45 8.81 8.51 13.1 4.48 6.44 4.48 6.44 4.48 10.1h2c1.21 2.42 2.42 4.83 3.62 7.25 0.859 1.71 1.72 3.42 2.6 5.12 2.78 5.42 2.78 5.42 2.78 7.62h2c2.44 4.88 4.88 9.75 7.31 14.6 0.609 1.22 0.609 1.22 1.23 2.46 1.15 2.31 2.3 4.62 3.45 6.93 0.712 1.43 1.42 2.87 2.14 4.3 0.337 0.682 0.674 1.36 1.02 2.07 1.41 2.84 2.85 5.61 4.49 8.33 1.31 2.2 2.23 4.28 3.12 6.67 1.75 4.52 3.74 8.88 5.81 13.2 2.39 5.06 4.56 10.1 6.44 15.4 0.659 1.69 1.33 3.38 2 5.06 0.309 0.775 0.619 1.55 0.938 2.35 0.814 1.98 1.66 3.96 2.51 5.93 1.57 3.71 3.03 7.45 4.43 11.2 0.39 1.05 0.39 1.05 0.787 2.11 5.92 15.9 11.5 32 16.4 48.3 0.64 2.11 1.29 4.21 1.96 6.3 2.08 6.58 3.83 13.1 5.26 19.9 0.627 2.84 0.627 2.84 1.7 5.29 1.28 3.29 1.86 6.56 2.51 10 0.871 4.69 1.99 9.04 3.5 13.6 0.561 2.99 0.998 5.99 1.44 9 0.476 2.98 0.476 2.98 1.5 5.61 1.6 5.11 2.27 10.3 3.06 15.6 1.35 8.93 1.35 8.93 3.03 17.8 1.38 6.67 2.1 13.4 2.92 20.2 0.123 0.989 0.246 1.98 0.373 3 0.162 1.34 0.162 1.34 0.326 2.71 0.15 2.05 0.15 2.05 1.36 3.07 0.291 2.79 0.524 5.57 0.719 8.38 0.0628 0.84 0.126 1.68 0.19 2.54 0.27 3.61 0.529 7.22 0.789 10.8 0.191 2.63 0.387 5.25 0.583 7.88 0.086 1.23 0.086 1.23 0.174 2.49-0.0503 3.75-0.0503 3.75 1.55 6.88 3.93 20.3 3.28 41.5 3.25 62.1-7.01e-4 0.994-7.01e-4 0.994-0.00142 2.01-0.00336 4.51-0.0204 9.02-0.0455 13.5-0.00438 1.14-0.00875 2.28-0.0133 3.46-0.0928 10.8-0.824 21.5-2.09 32.2-0.86 7.45-1.62 14.9-2.35 22.4-0.107 1.09-0.214 2.18-0.324 3.3-0.443 4.52-0.884 9.03-1.32 13.5-0.323 3.34-0.652 6.68-0.981 10-0.147 1.54-0.147 1.54-0.297 3.11-0.14 1.41-0.14 1.41-0.284 2.86-0.0806 0.83-0.161 1.66-0.244 2.51-0.297 2.02-0.297 2.02-1.3 4.02-0.255 1.72-0.464 3.44-0.648 5.17-0.117 1.05-0.233 2.1-0.354 3.18-0.185 1.68-0.185 1.68-0.373 3.4-0.925 8.07-2 15.9-3.87 23.8-1.11 5.03-1.89 10.1-2.66 15.2-0.672 4.26-1.7 8.11-3.09 12.2-0.538 2.67-1.04 5.32-1.5 8-0.825 4.82-1.91 9.37-3.5 14-0.524 2.16-1.02 4.33-1.5 6.5-0.937 4.28-2.1 8.35-3.5 12.5-0.337 1.43-0.652 2.87-0.938 4.31-1.16 5.4-2.95 10.5-4.78 15.7-2.07 6.02-3.67 12.1-5.22 18.3-0.886 3.04-1.96 5.81-3.25 8.69-1.69 4.06-2.96 8.28-4.32 12.5-1.93 5.97-3.94 11.8-6.5 17.5-2.45 5.8-4.86 11.6-7.19 17.5-4.57 11.5-9.36 22.8-15 33.8-2 3.96-3.86 7.98-5.72 12-3.74 8.02-7.82 15.8-12 23.6-1.09 2.03-2.17 4.07-3.24 6.11-3.75 7.12-7.65 14.1-11.9 20.9-2.92 4.81-5.81 9.62-8.5 14.6-2.14 3.89-4.51 7.56-7.02 11.2-1.92 2.86-3.67 5.81-5.41 8.79-0.356 0.473-0.712 0.946-1.08 1.43h-2c-0.309 1.21-0.309 1.21-0.625 2.44-1.78 4.62-4.24 8.72-7.38 12.6h-2c-0.266 0.73-0.531 1.46-0.805 2.21-1.19 2.78-2.56 4.96-4.32 7.41-0.623 0.869-1.25 1.74-1.89 2.63-0.656 0.905-1.31 1.81-1.99 2.74-0.646 0.905-1.29 1.81-1.96 2.74-4.49 6.25-9.21 12.3-14 18.3-4.59 5.68-4.59 5.68-8.62 11.8-1.75 2.86-4 4.87-6.38 7.25-1.9 2.11-3.73 4.27-5.56 6.44-0.703 0.821-0.703 0.821-1.42 1.66-2.23 2.64-4.23 5.23-6.14 8.12-1.67 2.47-3.06 4.03-5.38 5.84-2.94 2.39-5.14 4.97-7.5 7.94h-2c-0.186 0.701-0.371 1.4-0.562 2.12-1.72 3.44-3.8 5.07-6.76 7.45-1.89 1.61-3.22 3.43-4.68 5.43h-2c-0.206 0.722-0.412 1.44-0.625 2.19-1.85 3.78-3.98 5.34-7.38 7.81h-2l-0.25 1.88c-0.988 2.8-2.15 2.87-4.75 4.12-0.451 0.92-0.451 0.92-0.91 1.86-1.23 2.41-2.53 3.66-4.59 5.39l-1.84 1.58c-1.66 1.17-1.66 1.17-3.66 1.17-0.402 0.959-0.402 0.959-0.812 1.94-1.19 2.06-1.19 2.06-4.19 3.06-0.402 0.866-0.402 0.866-0.812 1.75-1.7 3.21-4.39 5.04-7.19 7.25-1.21 1.01-2.42 2.04-3.62 3.06-0.549 0.465-1.1 0.931-1.66 1.41-1.23 1.1-2.42 2.25-3.58 3.42-2.43 2.4-4.99 4.56-7.63 6.73-0.938 0.776-1.88 1.55-2.84 2.35-2.66 2.02-2.66 2.02-4.94 3.11-2.08 0.854-2.08 0.854-2.72 3.91-1.32 0.685-2.66 1.35-4 2-1.36 1.31-2.69 2.65-4 4-12.7 11-12.7 11-16 11-0.33 0.99-0.66 1.98-1 3-1.33 0.957-2.68 1.9-4.07 2.77-2.32 1.47-4.56 3.03-6.81 4.6-0.853 0.597-1.71 1.19-2.59 1.81-3.04 2.18-6 4.44-8.95 6.75-1.59 1.07-1.59 1.07-3.59 1.07v2c-5.75 3-5.75 3-8 3-0.33 0.99-0.66 1.98-1 3-3.06 1.19-3.06 1.19-6 2v2c-5.75 3-5.75 3-8 3-0.33 0.99-0.66 1.98-1 3-2.15 1.38-4.25 2.61-6.5 3.81-1.29 0.71-2.58 1.42-3.86 2.14-0.627 0.349-1.25 0.697-1.9 1.06-2.22 1.27-4.32 2.67-6.42 4.12-4.11 2.82-8.41 5.15-12.8 7.5-2.96 1.63-5.71 3.49-8.51 5.38-2 1.01-4 2.01-6 3-3.11 1.61-6.21 3.24-9.31 4.88-0.804 0.422-1.61 0.843-2.44 1.28-4.8 2.53-9.56 5.12-14.3 7.77-11.4 6.32-23.5 11.5-35.4 16.9-1.73 0.786-3.46 1.58-5.19 2.38-7.69 3.56-15.5 6.7-23.4 9.79-1.13 0.446-1.13 0.446-2.28 0.901-2.36 0.932-4.73 1.86-7.09 2.79-0.725 0.285-1.45 0.571-2.2 0.865-4.42 1.72-8.88 3.29-13.4 4.77-2.52 0.834-5 1.75-7.48 2.68-1.85 0.671-3.71 1.34-5.56 2-0.813 0.293-1.63 0.585-2.46 0.887-12.4 4.12-24.5 4.13-36.5-0.887l-3-1.19c-0.66-0.268-1.32-0.536-2-0.812v-2c-0.742-0.227-1.48-0.454-2.25-0.688-3.29-1.57-4.72-3.31-6.75-6.31v-2h-2c-5.37-9.65-6.86-17.1-6.67-28.1 0.00332-1.47 0.00395-2.94 0.00214-4.42 0.00248-3.98 0.0418-7.97 0.0876-12 0.0421-4.25 0.0485-8.51 0.0588-12.8 0.0219-7.26 0.0643-14.5 0.121-21.8 0.0881-11.3 0.135-22.5 0.173-33.8 0.00644-1.88 0.0129-3.76 0.0194-5.64 0.00969-2.81 0.0193-5.62 0.0288-8.44 0.0191-5.6 0.0416-11.2 0.0668-16.8 0.135-30 0.0254-60-0.354-90.1-0.0387-3.07-0.076-6.14-0.113-9.22-0.129-10.7-0.268-21.4-0.426-32h-1c-0.105-1.01-0.105-1.01-0.212-2.04-1.41-13.3-3.01-26.1-6.79-39-0.445-1.61-0.445-1.61-0.898-3.26-3.28-11.4-7.75-22.5-13.3-33-0.752-1.76-0.752-1.76-0.752-4.76h-2c-0.268-0.51-0.536-1.02-0.812-1.55-6.83-12.7-15-23.4-25.2-33.5 10.6-1.98 21.2-3.64 31.9-5 0.9-0.117 1.8-0.234 2.73-0.354 0.803-0.101 1.61-0.203 2.43-0.307 2.05-0.255 2.05-0.255 3.98-1.34 1.47-0.264 2.95-0.485 4.44-0.684 0.896-0.123 1.79-0.246 2.71-0.373 1.41-0.189 1.41-0.189 2.85-0.381 9.22-1.24 18.2-2.58 27-5.56 2.58-0.516 5.15-0.996 7.75-1.44 5.38-0.961 10.5-2.13 15.8-3.81 2.99-0.9 6.01-1.57 9.05-2.25 4.39-0.991 8.61-2.12 12.9-3.62 2.14-0.732 4.28-1.42 6.45-2.08 0.7-0.215 1.4-0.43 2.12-0.651 1.39-0.424 2.78-0.846 4.17-1.26 4.43-1.36 8.59-3.06 12.8-4.89 1.39-0.462 2.79-0.911 4.19-1.35 5.79-1.89 11.2-4.46 16.7-7.02 1.53-0.704 1.53-0.704 3.09-1.42 8.57-3.96 17.1-8.04 25.3-12.7 2.21-1.24 4.42-2.47 6.64-3.7 1.43-0.795 2.87-1.59 4.3-2.39 0.686-0.376 1.37-0.752 2.08-1.14 3.86-2.15 7.26-4.46 10.7-7.3 1.4-0.978 2.82-1.94 4.25-2.88 0.771-0.509 1.54-1.02 2.34-1.54 1.63-1.07 3.26-2.13 4.89-3.2l2.4-1.57c0.719-0.468 1.44-0.936 2.18-1.42 1.87-1.34 3.36-2.74 4.95-4.39 4.04-3.69 8.18-7.16 12.6-10.4 3.79-2.9 6.83-6.06 9.88-9.71 2.05-2.43 4.28-4.63 6.55-6.85 8.29-8.11 15.8-17 22.5-26.4 0.595-0.831 0.595-0.831 1.2-1.68 2.69-3.84 5.02-7.79 7.3-11.9h2c0.253-0.864 0.505-1.73 0.766-2.62 1.3-3.55 2.94-6.34 4.98-9.51 3.86-6.09 7.12-12.4 10.2-18.9 0.706-1.4 1.41-2.79 2.12-4.19 1.73-3.47 3.33-6.99 4.88-10.5 0.648-1.47 1.31-2.93 2-4.38 2.52-5.39 4.31-10.9 5.97-16.6 0.762-2.45 1.58-4.81 2.5-7.21 1.53-4 2.78-8.05 3.97-12.2 0.318-1.09 0.318-1.09 0.642-2.21 3.83-12.5 3.83-12.5 6.41-25.3 0.516-3.38 0.516-3.38 1.49-5.72 1.13-2.93 1.6-5.6 2.03-8.71l0.5-3.51 0.5-3.64c1.87-13.4 1.87-13.4 3.06-18.9 1.24-5.93 1.6-11.9 2-17.9 0.154-2.23 0.311-4.46 0.473-6.69 0.0658-0.973 0.132-1.95 0.199-2.95 0.265-2.36 0.265-2.36 1.27-4.36 1.82-16.5 1.28-33.3 1.31-49.8 0.00203-0.753 0.00407-1.51 0.00616-2.28 0.0586-23.2-0.538-46-4.32-68.9h-1c-0.204-1.12-0.204-1.12-0.411-2.26-0.626-3.41-1.26-6.83-1.9-10.2l-0.646-3.55c-1.18-6.29-2.59-12-5.04-17.9-0.491-1.41-0.972-2.83-1.44-4.25-0.255-0.766-0.51-1.53-0.773-2.32-0.524-1.61-1.03-3.23-1.52-4.86-3.95-12.7-9.45-25.3-15.6-37.1-1.69-3.48-1.69-3.48-1.69-6.48h-2c-0.233-0.513-0.467-1.03-0.707-1.55-2.93-6.14-6.32-12-9.86-17.8-0.471-0.776-0.942-1.55-1.43-2.35-2.46-4-5.01-7.72-8.01-11.3-1.2-1.66-2.38-3.33-3.56-5-4.02-5.56-8.36-10.8-12.8-16-0.428-0.503-0.856-1.01-1.3-1.52-0.906-1.05-1.83-2.07-2.78-3.09-3.5-3.86-3.5-3.86-3.69-6.71 0.217-0.694 0.433-1.39 0.656-2.1 0.227-0.772 0.454-1.54 0.688-2.34 0.977-2.75 2.01-5.47 3.09-8.18 1.08-3.14 1.63-6.35 2.2-9.61 0.527-2.49 0.527-2.49 1.49-5.36 3.26-9.82 4.38-19.9 4.83-30.2 0.211-2.95 0.211-2.95 1.21-4.95 0.0991-1.34 0.138-2.69 0.145-4.04 0.0063-0.838 0.0126-1.68 0.0191-2.54 0.00119-0.913 0.00239-1.83 0.00362-2.77 0.00405-0.949 0.00811-1.9 0.0123-2.88 0.00949-3.09 0.00939-6.19 0.00725-9.28 7.25e-4 -1.04 0.00145-2.08 0.0022-3.16-0.00123-15.9-0.44-31.6-2.19-47.3h-1c-0.255-1.89-0.255-1.89-0.516-3.81-2.69-19.3-7.82-37.6-13.5-56.2-0.245-0.806-0.49-1.61-0.742-2.44-1.63-5.14-3.74-9.78-6.26-14.6-4.82-0.0498-9.64-0.0859-14.5-0.11-1.64-0.00999-3.27-0.0236-4.91-0.041-8.51-0.0883-16.4-0.144-24.6 2.15-3.36 0.527-6.71 0.987-10.1 1.44-2.75 0.531-4.45 1.32-6.92 2.56-2.52 0.668-5.03 1.29-7.56 1.88-6.68 1.61-13 3.63-19.4 6.12-1.33 0.496-2.66 0.989-3.98 1.48-1.42 0.527-2.84 1.05-4.27 1.58-0.662 0.245-1.32 0.491-2.01 0.744-4.3 1.61-8.53 3.36-12.7 5.19-1.27 0.538-2.53 1.08-3.8 1.61-7.09 3.03-14 6.2-20.7 9.99-2.47 1.38-4.97 2.65-7.51 3.9-9.07 4.5-17.8 9.52-26.5 14.7-4.03 2.39-8.07 4.73-12.2 7.02-5.51 3.1-10.8 6.37-15.9 10.1-3.58 2.53-7.29 4.83-11 7.15-2.44 1.48-2.44 1.48-4.35 3.29-4.6 2.83-11 1.04-16.1 0.289-2.33-0.623-4.53-1.38-6.78-2.24-3.44-1.17-6.96-1.67-10.5-2.23-2.68-0.527-2.68-0.527-5.39-1.46-4.33-1.41-8.7-2.26-13.2-3.13-0.86-0.173-1.72-0.347-2.61-0.525-4.02-0.797-8.01-1.5-12.1-1.97-3.43-0.441-3.43-0.441-4.43-1.44-1.59-0.285-3.2-0.515-4.8-0.719-0.976-0.128-1.95-0.255-2.96-0.387-1.54-0.195-1.54-0.195-3.11-0.395-2.02-0.258-4.04-0.518-6.05-0.781-0.9-0.114-1.8-0.228-2.73-0.346-2.34-0.373-2.34-0.373-5.34-1.37-1.53-0.2-3.06-0.363-4.6-0.5-0.884-0.0825-1.77-0.165-2.68-0.25-1.86-0.167-3.72-0.334-5.59-0.5-0.882-0.0825-1.76-0.165-2.67-0.25-0.808-0.0722-1.62-0.144-2.45-0.219-2.02-0.281-2.02-0.281-4.02-1.28-1.44-0.169-2.89-0.285-4.34-0.373-0.898-0.0568-1.8-0.114-2.72-0.172-0.971-0.0573-1.94-0.115-2.94-0.174-0.994-0.0628-1.99-0.126-3.01-0.19-4.26-0.269-8.53-0.529-12.8-0.789-3.11-0.191-6.21-0.387-9.32-0.583-0.973-0.0573-1.95-0.115-2.95-0.174-0.894-0.0568-1.79-0.114-2.71-0.172-0.791-0.0481-1.58-0.0961-2.4-0.146-1.82-0.227-1.82-0.227-2.82-1.23-2.03-0.11-4.07-0.149-6.1-0.161-1.32-0.00948-2.64-0.019-3.99-0.0287-1.46-0.00483-2.93-0.00924-4.39-0.0133-1.51-0.00687-3.03-0.0138-4.54-0.0208-4.91-0.0194-9.82-0.0237-14.7-0.026-0.829-8.84e-4 -1.66-0.00177-2.51-0.00268-21-0.02-42 0.122-63 1.63-0.892 0.0631-1.78 0.126-2.7 0.191-8.76 0.641-17.4 1.55-26.1 2.98-4.89 0.747-9.8 1.13-14.7 1.52-1.93 0.153-3.86 0.311-5.8 0.473-0.834 0.0658-1.67 0.132-2.53 0.199-1.93 0.0683-1.93 0.0683-2.93 1.27-1.52 0.273-3.06 0.491-4.59 0.684-1.42 0.185-1.42 0.185-2.88 0.373-1 0.126-2 0.251-3.03 0.381-6.93 0.871-13.7 1.94-20.5 3.56-2.02 0.441-4.04 0.878-6.06 1.31-1.17 0.253-2.35 0.505-3.56 0.766-3.49 0.741-6.98 1.45-10.5 2.16-1.61 0.328-1.61 0.328-3.26 0.663-2.16 0.438-4.31 0.872-6.47 1.3-1.5 0.306-1.5 0.306-3.03 0.618-0.895 0.18-1.79 0.36-2.71 0.545-2.37 0.622-4.27 1.5-6.44 2.64-14 3.43-14 3.43-19.9 0.625-0.701-0.536-1.4-1.07-2.12-1.62v-2c-0.88-0.251-1.76-0.503-2.67-0.762-3.45-1.28-5.75-2.8-8.64-5.05-4-3-7.96-5.57-12.4-7.91-2.68-1.48-5.24-3.11-7.81-4.78-4.73-3.04-9.55-5.83-14.5-8.5-0.922-0.507-1.84-1.01-2.79-1.54-4.69-2.58-9.39-5.11-14.2-7.46-1.46-0.728-2.92-1.46-4.38-2.19l-2.09-1.04c-0.508-0.254-1.02-0.508-1.54-0.77v-2l-1.62-0.375c-7.44-1.96-13.9-5.27-20.7-8.79-2.83-1.46-5.66-2.72-8.64-3.84l-4.69-1.88c-0.877-0.349-1.75-0.699-2.66-1.06-1.67-0.671-3.34-1.35-5-2.04-24.4-10-50.7-17.2-77.1-17.3-1.52-0.0116-3.04-0.0322-4.56-0.0615-2.21-0.0426-4.42-0.0588-6.63-0.0691l-3.97-0.0442c-3.4 0.196-3.4 0.196-5.72 2.27-1.49 2-2.42 3.54-3.2 5.89-0.237 0.692-0.475 1.38-0.719 2.1-0.355 1.1-0.355 1.1-0.718 2.21-0.256 0.76-0.511 1.52-0.775 2.3-0.513 1.53-1.02 3.06-1.52 4.59-0.6 1.81-1.23 3.61-1.87 5.4-2.26 6.41-3.82 12.8-5.12 19.5-0.711 3.23-0.711 3.23-1.7 6.09-1.27 3.94-1.92 7.87-2.57 11.9-1.31 8.06-1.31 8.06-2.44 9.19-0.287 1.7-0.516 3.4-0.719 5.11-0.127 1.06-0.254 2.12-0.385 3.2-0.131 1.13-0.261 2.27-0.396 3.44-0.134 1.16-0.268 2.31-0.406 3.5-1.34 11.4-1.34 11.4-2.09 22.7-0.0325 0.807-0.0651 1.61-0.0986 2.45-0.509 14.6 0.396 28.9 1.91 43.4 0.124 1.22 0.124 1.22 0.251 2.46 0.978 9.45 2.33 18.5 4.94 27.7 0.461 1.77 0.92 3.54 1.38 5.31 0.873 3.23 1.85 6.38 2.96 9.54 0.349 1 0.349 1 0.706 2.02 0.678 1.92 1.37 3.84 2.07 5.75 0.92 3.49 1.13 5.04-0.109 8.38-1.78 2.68-1.78 2.68-3.94 5.31-0.71 0.883-1.42 1.77-2.15 2.68-0.63 0.664-1.26 1.33-1.91 2.01h-2c-0.237 0.699-0.474 1.4-0.719 2.12-1.52 3.42-3.5 6.05-5.78 9.01-2.25 2.92-4.45 5.81-6.5 8.88h-2c-0.289 0.742-0.578 1.48-0.875 2.25-0.948 2.32-1.97 4.53-3.12 6.75h-2c-0.268 0.887-0.536 1.77-0.812 2.69-1.46 4.06-3.57 7.37-5.91 11-8.91 13.9-15.3 29-21.3 44.3-0.309 0.754-0.617 1.51-0.935 2.28-7 17.1-11.2 34.8-14.6 53-0.478 2.55-1.01 5.09-1.55 7.63-6.5 32.5-4.65 66.7-3.03 99.6 0.0433 0.883 0.0866 1.77 0.131 2.67 0.125 2.47 0.258 4.95 0.396 7.42 0.0386 0.74 0.0772 1.48 0.117 2.24-0.0722 3.37-0.0722 3.37 1.42 6.17 0.216 1.68 0.371 3.37 0.5 5.06l0.25 3.11 0.25 3.27c0.163 2.12 0.329 4.25 0.5 6.37 0.0722 0.947 0.144 1.89 0.219 2.87 0.152 2.34 0.152 2.34 1.28 4.32 0.337 2.02 0.631 4.05 0.902 6.07l0.51 3.71c0.348 2.58 0.694 5.16 1.04 7.74 0.826 6 1.69 11.7 3.55 17.5 0.636 2.48 1.26 4.96 1.88 7.44 0.256 1.03 0.256 1.03 0.517 2.08 0.89 3.58 1.77 7.15 2.65 10.7 2.42 9.84 4.83 19.5 8.96 28.8 1.37 3.5 2.66 7.02 3.9 10.6 4.11 11.6 9.56 22.5 15.1 33.4l1.58 3.17c3.7 7.36 7.92 14.3 12.5 21.1 2.95 4.48 2.95 4.48 2.95 6.7h2c1.17 1.66 2.26 3.38 3.31 5.12 3.12 5.04 6.4 9.3 10.3 13.7 2.96 3.35 5.8 6.7 8.41 10.3 1.9 2.61 3.79 4.67 6.31 6.69l2.62 2.12v2l1.66 0.66c3.09 1.77 5.29 4.21 7.71 6.78 6.38 6.55 13.3 12.1 20.6 17.6l1.71 1.27c19.6 14.5 40.3 26.8 62.4 36.9 1.65 0.748 3.29 1.51 4.93 2.27 2.63 1.21 5.27 2.4 7.91 3.57 0.834 0.374 1.67 0.748 2.53 1.13 15.3 6.61 31.1 11.8 47.2 15.8 3.81 0.949 7.49 2.16 11.2 3.47 2.95 0.922 5.97 1.22 9.03 1.63 0.681 0.298 1.36 0.596 2.06 0.902 4.29 1.6 8.69 2.29 13.2 3.1 10.4 1.9 10.4 1.9 15.5 3.06 3.54 0.804 7.07 1.42 10.7 1.94 3.75 0.536 7.43 1.18 11.1 1.97 7.4 1.51 14.9 2.13 22.4 2.89 1.68 0.18 1.68 0.18 3.39 0.363 1.51 0.154 1.51 0.154 3.06 0.311 2.57 0.471 2.57 0.471 5.57 2.47 1.66 0.385 3.32 0.728 5 1-0.66 0.66-1.32 1.32-2 2-0.66-0.33-1.32-0.66-2-1-0.33 1.32-0.66 2.64-1 4-0.619 0.0619-1.24 0.124-1.88 0.188-0.701 0.268-1.4 0.536-2.12 0.812-0.702 1.65-1.37 3.32-2 5-0.99 0.33-1.98 0.66-3 1-0.68 2-1.34 4-2 6-1.31 1.68-2.65 3.35-4 5-2.47 3.91-4.93 7.86-7 12h-2c-0.247 0.99-0.495 1.98-0.75 3-0.776 2.72-1.75 5.12-3.06 7.62-7.72 14.9-12 31.5-15.3 47.9-0.155 0.734-0.311 1.47-0.471 2.22-0.462 2.27-0.462 2.27-0.66 4.67-0.745 5.79-0.745 5.79-3.54 7.96-2.41 1.16-4.81 2.04-7.35 2.87-0.907 0.326-1.81 0.652-2.75 0.988-2.7 0.957-5.41 1.86-8.13 2.76-1.34 0.475-2.67 0.953-4 1.43-20.1 6.86-41.1 9.78-62.3 9.75-0.703-2.72e-4 -1.41-5.44e-4 -2.13-8.24e-4 -16.1-0.0285-32.1-0.447-47.6-5.19-1.1-0.311-2.2-0.621-3.33-0.941-5.44-1.58-10.6-3.24-15.6-5.94-1.59-0.855-3.21-1.65-4.84-2.42-6.4-3.03-12-6.48-17.7-10.8-2.56-1.98-2.56-1.98-5.37-3.7-4.2-2.93-7.81-6.33-11.5-9.86-0.754-0.715-1.51-1.43-2.28-2.17-5.42-5.18-10.6-10.4-15.4-16.2-0.67-0.794-1.34-1.59-2.03-2.41-6.26-7.61-11.6-15.8-16.8-24.1-7.87-12.7-16.1-24.3-26.2-35.3-1.58-1.73-3.06-3.49-4.52-5.33-5.07-5.85-10.9-10.3-17.5-14.5-1.98-1.36-1.98-1.36-3.43-2.82-3.58-3.54-8.3-5.9-12.6-8.54l-2.52-1.61c-8.75-5.48-17.9-9.17-27.9-11.7-3.21-0.848-6.31-1.92-9.43-3.04-7.04-2.11-14.2-1.83-21.5-1.84l-3.59-0.0371c-10.1-0.0168-17.5 0.958-26.1 6.22h-2c-2.13 4.96-3.67 8.6-1.94 13.9 5.5 13.1 20.3 21.6 31.8 28.9 7.97 5.15 15 10.9 22.2 17.2 1.18 0.996 1.18 0.996 2.39 2.01 4.34 3.68 8.04 7.57 11.6 12 0.713 0.86 1.43 1.72 2.16 2.61 10 12.1 18.9 24.8 26.8 38.4 0.396 0.679 0.791 1.36 1.2 2.06 8.01 14.1 14.5 28.7 20.3 43.8 8.04 20.9 20 40.8 36.5 56.1 1.72 1.63 3.37 3.27 5 5v2l1.7 0.719c2.81 1.57 4.75 3.52 7.05 5.78 6.26 5.8 13.1 10.1 20.4 14.4 1.52 0.907 3.02 1.84 4.52 2.79 19.1 12 40.9 18.7 62.8 23.5 0.694 0.155 1.39 0.31 2.1 0.469 16 3.33 31.9 3.71 48.1 3.66 1.07-4.93e-4 2.15-9.87e-4 3.25-0.0015 26.6 1.27 26.6 1.27 51.9-4.31 4-0.671 8.04-1.13 12.1-1.62l3.42-0.445c1.07-0.134 2.14-0.268 3.24-0.406 0.988-0.125 1.98-0.249 2.99-0.377 0.754-0.0482 1.51-0.0964 2.28-0.146 1.58 1.58 1.16 3.19 1.21 5.38 0.0199 0.953 0.0398 1.91 0.0604 2.89 0.0251 1.59 0.0251 1.59 0.0507 3.22 0.021 1.13 0.042 2.25 0.0637 3.41 0.0678 3.8 0.126 7.61 0.182 11.4 0.0198 1.31 0.0397 2.62 0.0602 3.97 0.157 10.6 0.273 21.1 0.377 31.7 0.00883 0.877 0.0177 1.75 0.0268 2.66 0.123 12.3 0.211 24.5 0.259 36.8 0.0155 3.76 0.0403 7.51 0.0731 11.3 0.0383 4.48 0.0565 8.95 0.0599 13.4 0.00444 1.65 0.0157 3.31 0.0343 4.96 0.147 13.7-1.71 24.6-11.5 34.9-4.63 4.46-9.55 5.97-15.7 7.42-2.21 0.362-2.21 0.362-3.26 1.58-12.2 0.852-22.7 0.0778-34.1-4.29-1.9-0.722-3.81-1.39-5.74-2.05-5.82-2.02-11.5-4.17-17.1-6.66-1.53-0.623-3.06-1.24-4.6-1.85-1.33-0.53-1.33-0.53-2.69-1.07-2.51-0.996-5.02-1.99-7.54-2.97-9.04-3.56-18-7.26-26.7-11.5-2.59-1.23-5.18-2.41-7.8-3.57-11.8-5.21-23.4-10.7-34.7-17.1-1.98-1.09-3.96-2.17-5.94-3.25-1.31-0.719-1.31-0.719-2.65-1.45-2.12-1.14-4.25-2.23-6.41-3.3v-2l-1.83-0.551c-0.799-0.251-1.6-0.503-2.42-0.762l-2.39-0.738c-2.52-1.01-4.22-2.3-6.36-3.95-1.82-1.03-3.65-2.03-5.5-3-3.41-1.8-6.43-3.69-9.5-6-1.86-1.07-3.73-2.11-5.62-3.12l-2.91-1.57c-1.48-0.784-2.96-1.56-4.46-2.3v-2l-2.44-0.625c-4.62-1.78-8.72-4.24-12.6-7.38v-2l-2.44-0.625c-5.1-1.97-10.2-4.88-14-8.85-2.14-2.07-4.54-3.47-7.07-5.03-3.21-1.97-5.88-3.81-8.5-6.5-1.92-1.5-3.86-2.98-5.81-4.44l-3.08-2.31c-2.14-1.56-4.26-3-6.49-4.41l-2.61-1.84v-2l-2.12-0.648c-3.64-1.71-6.17-4.2-9.01-6.98-4.86-4.64-9.87-8.65-15.4-12.5-3.18-2.38-5.86-5.06-8.59-7.93-2.52-2.57-5.23-4.87-7.96-7.21-1.95-1.73-3.76-3.54-5.57-5.41-2.14-2.2-4.22-3.98-6.81-5.62l-2.56-1.69v-2h-2v-2c-0.99-0.33-1.98-0.66-3-1-2.49-2.25-4.59-4.15-6.06-7.19-1.22-2.35-2.61-2.68-4.94-3.81l-1-3c-0.66-0.33-1.32-0.66-2-1-2-1-2-1-3-4-0.99-0.33-1.98-0.66-3-1v-2h-2c-1.23-1.22-1.23-1.22-2.75-3.06-3.59-4.22-7.33-8.27-11.1-12.3-12.7-13.6-24.5-27.7-36-42.3-3.02-3.86-6.1-7.67-9.21-11.5-5.28-6.44-10.3-12.9-15-19.8-0.836-1.21-1.67-2.43-2.51-3.64-6.27-9.05-12.4-18.2-18.5-27.4-0.443-0.671-0.887-1.34-1.34-2.03-6.48-9.83-12.6-19.8-18.5-30-1.06-1.83-2.12-3.66-3.19-5.49-8.24-14.2-15.7-28.8-23-43.6-0.963-1.93-1.94-3.86-2.92-5.78-12-23.6-22.1-48.1-30.9-73-0.851-2.39-1.72-4.77-2.62-7.14-2.26-5.97-4.38-12-6.5-18l-0.848-2.38c-1.83-5.29-3.26-10.7-4.67-16.1-1.11-4.23-2.39-8.34-3.83-12.5-0.93-2.93-1.54-5.9-2.12-8.91-0.487-2.21-0.487-2.21-1.49-4.47-1.23-3.16-1.87-6.28-2.54-9.61-0.687-3.43-1.39-6.72-2.5-10-1.14-3.46-1.83-6.88-2.5-10.5-0.697-3.69-1.42-7.28-2.49-10.9-1.28-4.67-1.96-9.33-2.63-14.1l-0.406-2.79c-0.327-2.26-0.65-4.51-0.969-6.77h-1l-4-32h-1c-0.574-5.71-1.14-11.4-1.71-17.1-0.193-1.94-0.387-3.88-0.582-5.82-0.281-2.8-0.558-5.6-0.834-8.39-0.131-1.29-0.131-1.29-0.265-2.61-0.46-4.71-0.699-9.31-0.61-14h-1l0.0352-2.86 0.0273-3.89 0.0352-3.8c-0.0236-3.25-0.273-6.43-0.595-9.67-0.674-7.92-0.647-15.8-0.635-23.8-6.76e-4 -1.62-0.00165-3.25-0.0029-4.87-0.00147-3.39 6.38e-4 -6.78 0.00534-10.2 0.00567-4.29 0.00243-8.58-0.00357-12.9-0.00366-3.35-0.00244-6.7 1.28e-4 -10.1 6.56e-4 -1.58-1.12e-4 -3.16-0.00248-4.74-0.0103-8.85 0.172-17.6 0.787-26.5 0.393-5.75 0.392-11.4 0.286-17.2 0.0625-2.66 0.0625-2.66 1.06-4.66 0.344-2.82 0.64-5.62 0.902-8.45 0.17-1.73 0.34-3.47 0.51-5.2 0.263-2.73 0.524-5.46 0.783-8.2 0.251-2.64 0.51-5.28 0.77-7.91 0.074-0.806 0.148-1.61 0.224-2.44 0.507-5.11 1.51-9.83 2.81-14.8 0.288-1.79 0.541-3.59 0.746-5.39 0.114-0.951 0.227-1.9 0.344-2.88 0.115-0.983 0.229-1.97 0.347-2.98 0.881-7.18 1.93-14.1 3.88-21.1 0.777-3.05 1.24-6.07 1.68-9.18 0.909-6.3 2.37-12.4 4-18.5 1.41-5.46 2.78-10.9 3.97-16.4 0.17-0.784 0.34-1.57 0.516-2.37 0.331-1.53 0.657-3.07 0.978-4.6 0.966-4.49 2.22-8.76 3.72-13.1 1.99-6.06 3.55-12.3 5.21-18.4 1.53-5.58 3.19-10.8 5.61-16.1 0.503-1.37 0.986-2.74 1.44-4.12 0.248-0.757 0.495-1.51 0.75-2.29 0.944-3 1.84-6.01 2.75-9.02 1.45-4.76 3.09-9.36 4.99-13.9 1.72-4.18 3.31-8.41 4.93-12.6 3.67-9.53 7.63-18.9 11.9-28.2 1.27-2.84 2.45-5.7 3.62-8.58 2.4-5.85 5.19-11.4 8.07-17.1 1.33-2.68 2.46-5.35 3.55-8.13 2.91-6.18 6.15-12.2 9.47-18.2 1.17-2.17 2.27-4.34 3.36-6.54 2.43-4.89 5.14-9.62 7.86-14.4 0.527-0.92 1.05-1.84 1.6-2.79 6.65-11.6 13.5-22.9 20.7-34.2 1.13-1.77 2.25-3.54 3.38-5.31 0.853-1.33 0.853-1.33 1.72-2.7 1.44-2.26 2.86-4.52 4.27-6.8 0.814-1.29 1.63-2.59 2.44-3.88 0.385-0.625 0.771-1.25 1.17-1.89 0.953-1.51 1.98-2.97 3.02-4.42h2l0.746-2.12c1.44-3.3 3.25-5.99 5.32-8.94 0.398-0.567 0.796-1.13 1.21-1.72 6.53-9.25 13.5-18.2 20.4-27.2 1.43-1.86 2.86-3.71 4.29-5.58 3.35-4.36 6.83-8.56 10.5-12.7 1.35-1.55 2.63-3.17 3.88-4.8 0.557-0.66 1.11-1.32 1.69-2h2c0.34-1.08 0.34-1.08 0.688-2.19 1.58-3.39 3.64-5.18 6.31-7.81 2-2.23 3.94-4.52 5.88-6.81 1.06-1.25 2.13-2.49 3.19-3.74 1.68-1.97 3.35-3.95 5.02-5.93 3.22-3.78 6.51-7.05 10.4-10.1 1.59-1.37 1.59-1.37 2.46-3.39 1.18-2.36 2.51-3.59 4.52-5.28l1.84-1.58c1.66-1.17 1.66-1.17 3.66-1.17 0.0799-0.593 0.16-1.19 0.242-1.8 1-2.91 2.38-3.7 4.88-5.45 3.2-2.37 5.88-4.7 8.44-7.75 3.48-4.14 7.31-7.53 11.4-11 1.74-1.49 3.48-2.98 5.21-4.47 1.77-1.52 3.55-3.04 5.32-4.56 2.4-2.05 4.79-4.1 7.19-6.16 0.823-0.705 0.823-0.705 1.66-1.42 1.11-0.95 2.21-1.91 3.3-2.86 4.09-3.52 4.09-3.52 6.31-3.52 0.292-0.826 0.292-0.826 0.59-1.67 2.01-3.33 4.91-5.34 7.97-7.64 0.943-0.724 0.943-0.724 1.91-1.46 1.26-0.967 2.52-1.93 3.79-2.89 2.29-1.75 4.55-3.54 6.81-5.33 2.87-2.24 5.8-4.15 8.94-6l1.32-1.34c6.57-6.47 15.1-11.4 22.7-16.7l2.55-1.77 2.45-1.67c1.08-0.741 1.08-0.741 2.19-1.5 1.81-1.07 1.81-1.07 3.81-1.07v-2c1.75-1.14 3.55-2.18 5.38-3.19 5.81-3.29 11.2-6.92 16.6-10.8 4.12-2.86 8.35-5.36 12.8-7.76 2.09-1.15 4.14-2.34 6.19-3.55 3.06-1.69 3.06-1.69 5.06-1.69v-2l1.77-0.848c5.96-2.91 11.7-6.1 17.4-9.5 2.9-1.67 5.86-3.16 8.86-4.65 1.36-0.762 2.71-1.53 4.06-2.31 4.7-2.63 9.55-4.85 14.5-7.07 3.64-1.69 7.21-3.48 10.8-5.3 4.1-2.07 8.11-3.94 12.4-5.45 3.24-1.25 6.35-2.76 9.49-4.24 8.45-3.99 17-7.66 25.8-10.9 2.28-0.855 4.54-1.77 6.79-2.68 5.35-2.15 10.8-4.12 16.2-6.06 1.07-0.392 2.14-0.784 3.25-1.19 6.93-2.52 13.9-4.84 20.9-7.01 4.02-1.24 8.03-2.52 12-3.87 9.5-3.19 19-6.05 28.8-8.22 2.8-0.656 5.51-1.42 8.25-2.28 4.06-1.27 8.11-2.16 12.3-2.91 1.97-0.412 3.92-0.932 5.85-1.49 4.93-1.39 9.92-2.3 14.9-3.25 3.67-0.715 3.67-0.715 7.01-1.78 4.82-1.3 9.64-1.92 14.6-2.57 1.89-0.248 3.79-0.499 5.68-0.754 0.83-0.108 1.66-0.215 2.52-0.326 1.93-0.169 1.93-0.169 2.93-1.36 2.34-0.361 4.67-0.667 7.03-0.938 1.06-0.127 1.06-0.127 2.13-0.258 2.26-0.272 4.52-0.539 6.78-0.805 2.26-0.266 4.51-0.533 6.77-0.805 1.41-0.169 2.81-0.335 4.22-0.498 3.66-0.42 3.66-0.42 7.08-1.7 3.02-0.365 6.03-0.672 9.06-0.938 0.941-0.085 1.88-0.17 2.85-0.258 10.7-0.929 21.5-1.53 32.3-2.11 1.05-0.0588 1.05-0.0588 2.12-0.119 1.92-0.108 3.84-0.211 5.77-0.313 4.34-0.396 8.13-1.41 12.6-1.39zm-7.74 1.13v1h13v-1h-13zm69 0v1h13v-1h-13zm415 432 1 2zm-1 50 1 4zm-1215 111 1 2zm-15 67 1 3zm-5 31 1 3zm-1 9 1 2zm1302 23 1 4zm-1306 9v9h1v-9h-1zm1308 25v11h1v-11h-1zm-3 63 1 4zm-4 35 1 2zm-1 6 1 3zm-5 26 1 2zm-1280 82 1 2zm982 330v26h1v-26h-1zm0 235 1 2z" fill="#FBFCFE"/>
<path transform="translate(997,1430)" d="m0 0h1v33h-1v-33z" fill="#FCFDFF"/>
<path transform="translate(997,1465)" d="m0 0h1v26h-1v-26z" fill="#FCFDFF"/>
<path transform="translate(600,1450)" d="m0 0h1v19h-1v-19z" fill="#000100"/>
<path transform="translate(794,15)" d="m0 0h16v1h-16v-1z" fill="#FCFDFF"/>
<path transform="translate(291,835)" d="m0 0h1v6h-1v-6z" fill="#000100"/>
<path transform="translate(835,405)" d="m0 0h6v1h-6v-1z" fill="#000100"/>
<path transform="translate(997,1422)" d="m0 0h1v5h-1v-5z" fill="#FCFDFF"/>
<path transform="translate(997,1397)" d="m0 0h1v5h-1v-5z" fill="#FCFDFF"/>
<path transform="translate(494,1301)" d="m0 0h5v1h-5v-1z" fill="#000100"/>
<path transform="translate(1596,749)" d="m0 0h1v5h-1v-5z" fill="#000100"/>
<path transform="translate(1,885)" d="m0 0 1 4z" fill="#FCFDFF"/>
<path transform="translate(885,409)" d="m0 0 2 1z" fill="#000100"/>
<path transform="translate(1161,352)" d="m0 0 2 1z" fill="#000100"/>
</svg>
