<?xml version="1.0" encoding="UTF-8"?>
<svg version="1.1" viewBox="0 0 1600 1600" width="1280" height="1280" xmlns="http://www.w3.org/2000/svg">
<path transform="translate(407 -.128)" d="m0 0c4.36 0.00256 8.72-7.31e-4 13.1-0.00324 7.62-0.0036 15.2-0.00351 22.9-9.53e-4 11.3 0.00379 22.7 0.00184 34-0.00121 20.3-0.00526 40.5-0.00481 60.8-0.00192 17.7 0.00252 35.4 0.00317 53.2 0.00198 1.76-1.15e-4 1.76-1.15e-4 3.56-2.31e-4 4.78-3.11e-4 9.55-6.3e-4 14.3-9.6e-4 44.8-0.00306 89.6-2.88e-4 134 0.0051 39.8 0.00475 79.5 0.00432 119-4.61e-4 44.7-0.00536 89.4-0.00748 134-0.00439 4.77 3.21e-4 9.53 6.34e-4 14.3 9.43e-4 1.76 1.19e-4 1.76 1.19e-4 3.56 2.4e-4 17.7 0.00114 35.4-1.92e-4 53.1-0.00272 20.1-0.00286 40.3-0.00214 60.4 0.00328 11.3 0.00294 22.5 0.00313 33.8-6.46e-4 7.53-0.00224 15.1-8.43e-4 22.6 0.0035 4.29 0.00238 8.58 0.0032 12.9-4.06e-4 3.91-0.00325 7.82-0.00183 11.7 0.00318 1.4 9.99e-4 2.8 3.62e-4 4.19-0.00221 9.35-0.016 18.7 0.11 28 1.13 0.33 0.33 0.66 0.66 1 1 2.1 0.166 4.21 0.28 6.31 0.375 6.56 0.358 13 1.15 19.5 2.13 0.878 0.131 1.76 0.261 2.66 0.396 6.26 0.971 6.26 0.971 8.53 2.1 1.42 0.341 2.85 0.648 4.28 0.938 1.26 0.259 1.26 0.259 2.55 0.523 0.88 0.178 1.76 0.356 2.67 0.539 1.74 0.352 3.48 0.706 5.22 1.06 0.773 0.156 1.55 0.312 2.34 0.473 1.94 0.465 1.94 0.465 3.94 1.46 2.52 0.646 5.04 1.27 7.56 1.88 5.92 1.46 11.7 3.05 17.4 5.12 1.07 0.37 2.13 0.74 3.23 1.12 17.3 6.07 34.5 13.4 50.8 21.9 1.39 0.702 2.77 1.4 4.16 2.11 15.3 7.83 30 16.7 43.8 26.9 0.696 0.503 1.39 1.01 2.11 1.52 17.3 12.5 17.3 12.5 23.9 18.7 2.27 2.07 4.65 3.93 7.07 5.82 5.83 4.71 11 9.97 16.3 15.3 2.89 2.95 5.75 5.83 8.94 8.44 2.2 1.81 4.01 3.51 5.84 5.67 0.581 0.682 1.16 1.36 1.76 2.07 0.697 0.824 1.39 1.65 2.11 2.5 0.943 1.09 1.89 2.19 2.83 3.28 17.2 19.9 17.2 19.9 17.2 22.7h2c1.3 1.69 1.3 1.69 2.75 4 1.98 3.08 4 6.05 6.25 8.94 9 11.8 9 11.8 9 16.1 0.99 0.33 1.98 0.66 3 1 1.06 1.71 1.06 1.71 2 3.81 1.11 2.39 2.07 4.28 3.69 6.38 1.61 2.22 1.94 4.13 2.31 6.81h2c3 6 3 6 3.95 7.9 1.67 3.35 3.35 6.69 5.05 10 9.21 18.1 16.8 36.7 23 56.1 0.212 0.649 0.423 1.3 0.641 1.97 4.51 13.9 8.05 27.8 10.7 42.1 0.468 2.83 0.468 2.83 1.61 4.91 0.28 2.02 0.511 4.04 0.719 6.07 0.128 1.21 0.255 2.41 0.387 3.66 0.263 2.56 0.526 5.12 0.789 7.69 0.128 1.21 0.255 2.41 0.387 3.65 0.114 1.11 0.228 2.23 0.346 3.37 0.102 2.49 0.102 2.49 1.37 3.56 3.72 17.5 3.43 35.2 3.39 52.9-0.00769 4.32 0.0022 8.63 0.00973 12.9 0.0108 7.55 0.0105 15.1 0.00286 22.6-0.0114 11.2-0.00552 22.4 0.00362 33.7 0.0158 20 0.0144 40.1 0.00576 60.1-0.00756 17.5-0.00951 35.1-0.00593 52.6 2.29e-4 1.17 4.58e-4 2.33 6.94e-4 3.53 9.34e-4 4.73 0.00189 9.46 0.00288 14.2 0.00917 44.4 8.67e-4 88.7-0.0153 133-0.0142 39.4-0.013 78.7 0.00138 118 0.0161 44.3 0.0224 88.5 0.0132 133-9.62e-4 4.72-0.0019 9.45-0.00283 14.2-3.56e-4 1.74-3.56e-4 1.74-7.19e-4 3.52-0.00341 17.5 5.68e-4 35.1 0.00816 52.6 0.00859 19.9 0.00641 39.9-0.00984 59.8-0.00879 11.1-0.00942 22.3 0.00194 33.4 0.00676 7.46 0.00248 14.9-0.0105 22.4-0.00709 4.24-0.00967 8.48 0.00122 12.7 0.0422 17.7-0.0811 35.2-3.39 52.7-0.33 0.33-0.66 0.66-1 1-0.203 1.36-0.347 2.72-0.465 4.09-0.115 1.26-0.115 1.26-0.232 2.56-0.0793 0.902-0.159 1.8-0.24 2.73-3.47 36.9-14.9 74.7-30.1 108-0.638 1.42-1.27 2.84-1.88 4.27-3.09 7.12-6.6 14-10.1 20.9h-2c-0.99 2.97-1.98 5.94-3 9h-2c-0.186 0.949-0.371 1.9-0.562 2.88-1.26 4.44-3.8 7.68-6.5 11.4-2.7 3.84-4.97 7.9-7.26 12-1.7 2.8-3.59 5.23-5.68 7.76-1.32 1.77-2.63 3.54-3.94 5.31-5.32 7.13-10.9 14-16.6 20.9-0.981 1.2-1.95 2.4-2.91 3.61-1.15 1.43-2.35 2.82-3.57 4.19h-2c-0.323 0.799-0.323 0.799-0.652 1.61-1.85 3.28-4.34 5.86-6.91 8.57-0.533 0.569-1.07 1.14-1.61 1.73-10.7 11.3-10.7 11.3-13.8 14.1h-2c-0.247 0.639-0.495 1.28-0.75 1.94-1.58 2.61-2.42 2.35-5.25 3.06-0.699 1.32-1.37 2.65-2 4-0.99 0.33-1.98 0.66-3 1-0.464 0.99-0.464 0.99-0.938 2-0.351 0.66-0.701 1.32-1.06 2-1.33 0.333-2.67 0.667-4 1-0.33 0.66-0.66 1.32-1 2-0.33 0.66-0.66 1.32-1 2-1.33 0.362-2.66 0.697-4 1-0.33 0.99-0.66 1.98-1 3-2.22 1.79-4.42 3.44-6.75 5.06-0.621 0.447-1.24 0.893-1.88 1.35-2.73 1.93-5.13 3.49-8.26 4.71-1.04 0.435-1.04 0.435-2.11 0.879-0.33 0.99-0.66 1.98-1 3-1.43 1.14-1.43 1.14-3.31 2.25-0.71 0.422-1.42 0.843-2.15 1.28-0.837 0.486-1.67 0.972-2.54 1.47-1.03 0.62-2.07 1.24-3.13 1.88-8.6 5.12-8.6 5.12-10.9 5.12-0.33 0.99-0.66 1.98-1 3-1.88 1.01-3.77 2-5.7 2.9-2.29 1.09-4.48 2.28-6.68 3.54-4.79 2.69-9.7 5.13-14.6 7.56-0.815 0.412-1.63 0.825-2.47 1.25-12.9 6.54-26.1 12.4-39.9 16.8-2.18 0.735-4.26 1.53-6.37 2.46-7.44 3.23-15.1 5.15-22.9 6.95-4.1 0.938-8.15 1.95-12.2 3.11-4.71 1.33-9.42 2.15-14.3 2.85-2.98 0.478-2.98 0.478-6.04 1.49-5.14 1.52-10.5 1.98-15.8 2.6-2.08 0.247-4.16 0.499-6.24 0.754-0.914 0.108-1.83 0.215-2.77 0.326-2.09 0.144-2.09 0.144-3.11 1.36-2.51 0.292-5.03 0.448-7.55 0.621-2.84 0.312-5.47 0.8-8.25 1.39-6.9 1.26-13.7 1.27-20.7 1.25-1.45 0.00239-2.9 0.00566-4.35 0.00972-3.97 0.00859-7.94 0.00481-11.9-0.00106-4.32-0.00418-8.65 0.00324-13 0.00915-7.58 0.00876-15.2 0.0101-22.7 0.0065-11.3-0.00531-22.5 7.9e-4 -33.8 0.00908-21.3 0.0152-42.6 0.0169-63.9 0.0145-16.4-0.00183-32.9-7.33e-5 -49.3 0.00422-2.36 6.02e-4 -4.73 0.0012-7.09 0.0018-3.56 9.07e-4 -7.12 0.00182-10.7 0.00273-33.1 0.00843-66.2 0.0128-99.4 0.00859-1.25-1.56e-4 -2.5-3.13e-4 -3.78-4.74e-4 -6.33-8.06e-4 -12.7-0.00165-19-0.00251-1.89-2.57e-4 -1.89-2.57e-4 -3.81-5.18e-4 -2.54-3.47e-4 -5.08-6.95e-4 -7.63-0.00105-39.5-0.00535-79.1 0.00256-119 0.021-44.4 0.0207-88.8 0.0314-133 0.0274-4.74-3.95e-4 -9.48-7.57e-4 -14.2-0.0011-1.17-9.07e-5 -2.33-1.81e-4 -3.54-2.75e-4 -17.6-0.00116-35.2 0.00547-52.8 0.0161-20 0.0121-40.1 0.0136-60.1 0.00121-11.2-0.00662-22.4-0.00503-33.6 0.00859-7.49 0.00827-15 0.00551-22.5-0.00598-4.26-0.00623-8.52-0.00793-12.8 0.00386-17.8 0.0459-35.3-0.0628-52.8-3.39-0.33-0.33-0.66-0.66-1-1-2.2-0.347-4.42-0.637-6.63-0.902-1.38-0.17-2.76-0.34-4.13-0.51-2.17-0.263-4.34-0.524-6.52-0.783-2.1-0.252-4.19-0.511-6.29-0.77-1.26-0.151-2.51-0.301-3.81-0.457-3.66-0.585-7.08-1.5-10.6-2.58-2.14-0.478-4.29-0.936-6.44-1.38-10.6-2.25-21.2-4.53-31.4-8.43-4.32-1.63-8.68-3.12-13-4.63-12.9-4.5-25.7-9.22-37.9-15.4-1.67-0.847-3.35-1.68-5.04-2.5-5.77-2.83-11.3-5.83-16.8-9.2-2.24-1.35-4.5-2.62-6.8-3.87-4.45-2.45-8.72-5.16-13-7.91-1.77-1.13-3.57-2.21-5.41-3.23-0.717-0.467-1.43-0.933-2.17-1.41v-2c-0.887-0.247-1.77-0.495-2.69-0.75-3.51-1.32-5.44-2.87-8.31-5.25-2.04-1.57-4.08-3.13-6.12-4.69-5.16-3.95-10.2-8.01-15.2-12.1-2.65-2.17-5.32-4.29-8.01-6.41-3.44-2.74-6.6-5.56-9.62-8.75-1.16-1.17-2.33-2.34-3.5-3.5-1.92-1.92-3.85-3.85-5.77-5.77-2.05-2.05-4.12-4.08-6.19-6.11-7.35-7.23-14.2-14.5-20.5-22.6-1.48-1.79-2.96-3.59-4.44-5.38-6.51-7.97-12.9-16-18.6-24.6-0.735-1.08-1.47-2.16-2.23-3.27-6.34-9.34-12.2-18.9-17.8-28.7-0.647-1.13-1.29-2.25-1.96-3.41-4.04-7.19-4.04-7.19-4.04-10.6h-2c-12.3-27.3-12.3-27.3-16.8-39.8-0.997-2.76-2.08-5.45-3.22-8.15-3.86-9.56-6.82-19.8-8.48-30-0.404-2.14-0.404-2.14-1.41-4.29-1.43-3.79-2.02-7.61-2.68-11.6-0.134-0.788-0.268-1.58-0.406-2.39-0.328-1.93-0.649-3.87-0.969-5.8h-1c-0.174-1.26-0.174-1.26-0.351-2.55-0.434-3.15-0.868-6.3-1.3-9.45-0.187-1.36-0.374-2.72-0.562-4.08-0.27-1.96-0.541-3.93-0.812-5.89-0.162-1.18-0.325-2.36-0.492-3.57-0.311-2.24-0.636-4.47-0.976-6.7-1.56-11.6-1.65-23.3-1.63-35-0.00105-1.47-0.00253-2.93-0.0044-4.4-0.00386-4-0.00158-7.99 0.00178-12 0.00255-4.36-7.29e-4 -8.72-0.00324-13.1-0.0036-7.63-0.00351-15.3-9.53e-4 -22.9 0.00379-11.3 0.00185-22.7-0.00121-34-0.00526-20.3-0.00481-40.5-0.00192-60.8 0.00252-17.7 0.00317-35.5 0.00198-53.2-7.64e-5 -1.18-1.53e-4 -2.35-2.31e-4 -3.57-3.11e-4 -4.78-6.3e-4 -9.55-9.6e-4 -14.3-0.00306-44.8-2.87e-4 -89.6 0.0051-134 0.00475-39.8 0.00432-79.6-4.61e-4 -119-0.00536-44.7-0.00748-89.4-0.00439-134 3.21e-4 -4.77 6.34e-4 -9.53 9.43e-4 -14.3 7.91e-5 -1.17 1.58e-4 -2.35 2.4e-4 -3.56 0.00114-17.7-1.92e-4 -35.4-0.00272-53.2-0.00286-20.1-0.00215-40.3 0.00328-60.4 0.00294-11.3 0.00313-22.5-6.46e-4 -33.8-0.00224-7.53-8.45e-4 -15.1 0.0035-22.6 0.00238-4.29 0.0032-8.58-4.06e-4 -12.9-0.00325-3.91-0.00183-7.82 0.00318-11.7 1e-3 -1.4 3.59e-4 -2.8-0.00221-4.2-0.0135-7.94 0.245-15.8 0.915-23.7 0.261-3.32 0.261-3.32 0.183-7.06 0.0317-3.16 0.0317-3.16 1.03-4.16 0.335-1.94 0.613-3.89 0.867-5.84 0.164-1.21 0.327-2.42 0.496-3.67 0.336-2.54 0.669-5.08 1-7.62 0.91-6.7 2.09-13.1 3.98-19.6 0.75-2.62 1.25-5.22 1.66-7.91 0.724-4.25 1.84-8.14 3.28-12.2 0.736-2.24 1.25-4.44 1.72-6.75 0.913-4.35 2.36-8.32 4-12.4 0.454-1.22 0.908-2.43 1.38-3.69 2.17-5.78 4.39-11.6 6.62-17.3 0.454-1.18 0.908-2.36 1.38-3.57 5.42-13.8 11.9-27.2 18.6-40.4h2l0.75-3.12c1.1-3.84 2.97-6.58 5.25-9.88 1.54-2.89 3.05-5.79 4.54-8.71 1.46-2.29 1.46-2.29 4.46-3.29 0.701-1.99 1.36-3.99 2-6 1.59-2.54 1.59-2.54 3.5-5.06 1.07-1.43 1.07-1.43 2.16-2.88 2.87-3.74 5.74-7.48 8.62-11.2 2.71-3.5 5.33-7.06 7.91-10.7 2.89-4 5.93-7.75 9.23-11.4 1.42-1.59 2.76-3.22 4.08-4.89 1.92-2.21 3.65-3.91 5.88-5.75 3.38-2.8 6.16-5.91 9-9.24 2.09-2.42 4.33-4.65 6.62-6.88l2.3-2.32c8.21-8.16 16.8-15.5 26-22.4 2.25-1.69 4.46-3.42 6.68-5.15 8.49-6.59 17.2-12.7 26.3-18.4 3.22-2.05 6.37-4.18 9.5-6.34 2.63-1.65 5.38-2.97 8.17-4.36 2.24-1.28 4.46-2.57 6.69-3.88 5.12-2.97 10.3-5.6 15.7-7.97 5.14-2.28 10.3-4.68 15-7.68 2.77-1.59 5.41-2.53 8.45-3.48 3.83-1.2 7.46-2.58 11.1-4.18 4.04-1.66 8.21-2.96 12.4-4.32 0.895-0.295 1.79-0.59 2.71-0.895 1.78-0.587 3.56-1.17 5.34-1.76 2.44-0.803 4.86-1.62 7.29-2.44 10.4-3.46 20.9-5.84 31.6-7.7 3.63-0.643 3.63-0.643 6.97-1.7 4.69-1.29 9.37-1.93 14.2-2.57 0.911-0.126 1.82-0.251 2.76-0.381 1.71-0.235 3.42-0.469 5.13-0.699 1.94-0.266 3.88-0.55 5.82-0.845 17.7-2.39 35.8-1.66 53.6-1.64zm-73.8 140c-1.95 0.498-3.91 0.977-5.88 1.44-4.88 1.2-9.47 2.69-14.1 4.56-1.24 0.454-2.48 0.908-3.75 1.38-15.6 5.89-31.2 12.7-45.2 21.6-1.67 0.982-3.33 1.96-5 2.94-6.09 3.65-12 7.63-17.5 12.1-3.28 2.62-6.73 4.95-10.2 7.32-2 1.46-3.6 2.91-5.3 4.68-1.28 1.13-2.58 2.26-3.88 3.38-4.5 3.93-8.62 8.02-12.5 12.6-2.81 3.26-5.75 6-9.14 8.64-1.58 1.35-1.58 1.35-2.37 3.28-1.53 2.93-3.76 4.83-6.11 7.14-5.39 6.72-10.3 13.8-15 21-0.351 0.545-0.702 1.09-1.06 1.65-1.57 2.43-3.13 4.86-4.69 7.3-1.71 2.67-3.43 5.31-5.24 7.9-2.51 3.94-4.47 8.04-6.44 12.3-0.592 1.26-0.592 1.26-1.2 2.55-7.02 15.1-12.6 30.4-17.4 46.3-0.278 0.889-0.557 1.78-0.844 2.7-1.82 6.14-3.03 12.4-4.22 18.7-0.244 1.25-0.244 1.25-0.492 2.52-3.72 20.4-3.74 40.9-3.71 61.6 0.00422 4.25-0.00326 8.5-0.00915 12.7-0.00872 7.43-0.0101 14.9-0.0065 22.3 0.00533 11-8.1e-4 22.1-0.00908 33.1-0.0152 20.9-0.0169 41.8-0.0145 62.7 0.00184 16.1 6.76e-5 32.3-0.00422 48.4-6.02e-4 2.32-0.0012 4.64-0.0018 6.96-9.07e-4 3.5-0.00182 7-0.00273 10.5-0.00843 32.5-0.0128 65-0.00859 97.5 1.56e-4 1.22 3.13e-4 2.45 4.74e-4 3.71 8.06e-4 6.21 0.00165 12.4 0.00251 18.6 1.71e-4 1.23 3.42e-4 2.46 5.18e-4 3.73 3.47e-4 2.49 6.95e-4 4.98 0.00105 7.48 0.00536 38.8-0.00257 77.5-0.021 116-0.0207 43.6-0.0314 87.2-0.0274 131 3.95e-4 4.65 7.57e-4 9.31 0.0011 14 9.07e-5 1.15 1.81e-4 2.29 2.75e-4 3.47 0.00116 17.3-0.00546 34.5-0.0161 51.8-0.0121 19.6-0.0136 39.3-0.00121 58.9 0.0066 11 0.00506 21.9-0.00859 32.9-0.0083 7.35-0.00548 14.7 0.00598 22.1 0.0062 4.17 0.00799 8.35-0.00386 12.5-0.0611 23.2 0.109 46.5 5.69 69.1 0.682 2.89 1.21 5.77 1.7 8.69 0.874 4.96 2.27 9.53 4 14.2 0.287 0.806 0.575 1.61 0.871 2.44 1.03 2.86 2.08 5.71 3.13 8.56 0.347 0.952 0.347 0.952 0.701 1.92 2.75 7.56 5.54 15 9.3 22.1 0.309 0.786 0.619 1.57 0.938 2.38 6.48 16 17.4 32.1 28.1 45.6 0.603 0.776 1.21 1.55 1.83 2.35 4.11 5.23 8.4 10.2 12.9 15.1 1.51 1.66 3 3.34 4.46 5.04 4.64 5.36 9.52 9.87 15.1 14.3 2.57 2.07 4.96 4.25 7.36 6.52 10.6 9.65 23 17.4 35.4 24.7 1.64 0.982 1.64 0.982 3.32 1.98 20.6 12.1 42.7 20.8 65.7 27 0.96 0.285 1.92 0.57 2.91 0.863 8.01 2.25 16.2 3.16 24.4 4.14 0.973 0.116 1.95 0.233 2.95 0.353 0.882 0.101 1.76 0.203 2.67 0.307 2.03 0.341 2.03 0.341 3.03 1.34 9.42 1.05 19 1.26 28.4 1.55 0.662 0.021 1.32 0.042 2.01 0.0636 14.5 0.452 29 0.525 43.5 0.51 3.7-0.0026 7.41 7.46e-4 11.1 0.00324 6.46 0.00357 12.9 0.00353 19.4 9.53e-4 9.61-0.00382 19.2-0.00183 28.8 0.00121 17.2 0.00524 34.4 0.00482 51.5 0.00192 15.1-0.00253 30.1-0.00317 45.2-0.00198 1 7.64e-5 2.01 1.53e-4 3.04 2.31e-4 4.08 3.11e-4 8.15 6.3e-4 12.2 9.6e-4 38.2 0.00305 76.4 2.95e-4 115-0.0051 33.8-0.00473 67.5-0.00433 101 4.61e-4 38.1 0.00539 76.1 0.00746 114 0.00439 4.08-3.21e-4 8.16-6.33e-4 12.2-9.43e-4 1.51-1.19e-4 1.51-1.19e-4 3.04-2.4e-4 15-0.00113 30 1.71e-4 45 0.00272 17.1 0.0029 34.3 0.00207 51.4-0.00328 8.71-0.00263 17.4-0.00384 26.1-3.51e-4 34 0.0126 68.1-0.0799 102-0.489 2.32-0.0268 4.65-0.0504 6.97-0.0731 15.4-0.154 30.6-0.42 45.8-2.57 1.37-0.161 2.74-0.318 4.11-0.47 7.43-0.827 14.3-2.34 21.5-4.53 3.33-0.98 6.64-1.77 10-2.5 6.3-1.42 12.3-3.32 18.4-5.5 1.85-0.648 1.85-0.648 3.75-1.31 9.82-3.5 19-7.88 28.3-12.7 1.04-0.518 2.08-1.04 3.16-1.57 2.61-1.31 5.17-2.69 7.72-4.12 0.781-0.437 1.56-0.874 2.37-1.32 0.87-0.489 0.87-0.489 1.76-0.988v-2c0.784-0.186 1.57-0.371 2.38-0.562 5.12-2.03 9.19-5.21 13.6-8.44 1.79-1.25 3.58-2.5 5.38-3.75 1.55-1.08 3.09-2.16 4.62-3.25l2.29-1.58c0.565-0.469 1.13-0.938 1.71-1.42v-2c0.804-0.268 1.61-0.536 2.44-0.812 0.846-0.392 1.69-0.784 2.56-1.19 0.33-0.99 0.66-1.98 1-3 1.31-0.709 2.65-1.37 4-2 2.67-2.15 5.13-4.53 7.62-6.88 1.02-0.938 1.02-0.938 2.06-1.89 0.652-0.61 1.3-1.22 1.98-1.85 0.592-0.553 1.18-1.11 1.8-1.68 1.64-1.66 1.64-1.66 2.56-3.86 0.979-1.85 0.979-1.85 3.98-2.85 0.144-0.639 0.289-1.28 0.438-1.94 0.186-0.681 0.371-1.36 0.562-2.06 1.32-0.699 2.65-1.37 4-2 0.33-0.99 0.66-1.98 1-3 0.99-0.33 1.98-0.66 3-1 1.38-1.97 2.71-3.97 4-6 0.822-1.08 1.66-2.16 2.51-3.22 0.429-0.54 0.859-1.08 1.3-1.64 0.881-1.1 1.77-2.2 2.66-3.29 2.75-3.48 4.39-6.58 5.54-10.9h2c1.49-1.81 1.49-1.81 2.94-4.12 0.504-0.766 1.01-1.53 1.53-2.32 1.68-2.79 3.11-5.63 4.54-8.55 0.621-1.23 1.24-2.47 1.87-3.7 14.5-28.8 27.4-60.7 29-93.3 0.176-2.02 0.176-2.02 1.18-3.02 0.158-1.38 0.248-2.78 0.312-4.17 0.0413-0.905 0.0826-1.81 0.125-2.74 0.0581-1.51 0.0581-1.51 0.117-3.06 0.0421-1.07 0.0842-2.14 0.128-3.24 0.496-14 0.462-27.9 0.453-41.9-0.00166-4.14 0.00253-8.29 0.00591-12.4 0.00512-7.24 0.00658-14.5 0.00554-21.7-0.00153-10.8 0.00266-21.5 0.00787-32.3 0.00964-20.4 0.0125-40.7 0.0131-61.1 4.61e-4 -15.7 0.00252-31.5 0.0057-47.2 8.98e-4 -4.54 0.00179-9.07 0.00267-13.6 3.32e-4 -1.69 3.32e-4 -1.69 6.7e-4 -3.42 0.00615-31.7 0.0101-63.4 0.00966-95.1-1.56e-5 -1.19-3.12e-5 -2.39-4.72e-5 -3.62-8.31e-5 -6.05-1.82e-4 -12.1-2.85e-4 -18.1-1.99e-5 -1.2-3.99e-5 -2.4-6.04e-5 -3.64-4.04e-5 -2.43-8.22e-5 -4.86-1.25e-4 -7.29-6.13e-4 -37.8 0.00689-75.6 0.0206-113 0.0154-42.5 0.024-85 0.023-128-7.46e-5 -4.54-1.23e-4 -9.08-1.54e-4 -13.6-1.17e-5 -1.12-2.33e-5 -2.23-3.53e-5 -3.39-3.07e-5 -17.9 0.00634-35.9 0.015-53.8 0.00851-18 0.00944-36.1 0.00289-54.1-0.00368-10.7-0.00192-21.4 0.00794-32.1 0.00605-7.17 0.00465-14.3-0.00247-21.5-0.00384-4.07-0.00478-8.13 0.00346-12.2 0.0299-15.9-0.192-31.6-1.15-47.5-0.0389-0.674-0.0777-1.35-0.118-2.04-0.415-7-1.01-13.6-2.99-20.3-0.369-1.87-0.716-3.75-1.04-5.64-0.17-0.989-0.339-1.98-0.514-3-0.17-1.01-0.339-2.01-0.514-3.05-0.345-2.02-0.69-4.05-1.04-6.07-0.15-0.886-0.299-1.77-0.453-2.69-0.444-2.53-0.936-5.04-1.45-7.55h-2l-0.227-1.84c-1.24-8.24-3.95-15.6-7.03-23.3-0.627-1.57-1.23-3.16-1.82-4.74-8.39-21.5-20.7-41.9-34.9-60.1-0.891-1.18-0.891-1.18-1.8-2.39-5.13-6.75-10.7-13.1-16.7-19.1-2.33-2.33-4.46-4.76-6.62-7.25-4.84-5.4-10.2-9.8-15.9-14.2-1.23-0.989-2.45-1.98-3.67-2.97-1.25-1.01-2.51-2.02-3.77-3.03-0.591-0.481-1.18-0.963-1.79-1.46-2.9-2.3-5.15-3.81-8.77-4.54v-2c-1.74-1.29-1.74-1.29-4.06-2.56-3.24-1.87-6.47-3.75-9.66-5.69-6.32-3.84-12.6-7.58-19.3-10.7-1.27-0.644-2.54-1.29-3.81-1.94-14.5-7.23-29.7-12.4-45.2-17.1-1.2-0.362-2.41-0.724-3.64-1.1-13.2-3.75-26.8-5.79-40.5-6.69-1.9-0.211-1.9-0.211-3.9-1.21-3.13-0.159-6.24-0.257-9.37-0.312-0.989-0.0205-1.98-0.0409-3-0.062-3.36-0.0665-6.71-0.124-10.1-0.181-1.78-0.0315-1.78-0.0315-3.59-0.0636-31.7-0.55-63.4-0.526-95.1-0.514-9.1 0.00328-18.2 5.55e-4 -27.3-0.0022-17.8-0.00521-35.6-0.00483-53.5-0.00192-15.6 0.00253-31.2 0.00316-46.7 0.00198-1.56-1.15e-4 -1.56-1.15e-4 -3.15-2.31e-4 -4.22-3.11e-4 -8.45-6.3e-4 -12.7-9.6e-4 -39.5-0.00305-78.9-3.06e-4 -118 0.0051-35 0.00475-70 0.00431-105-4.61e-4 -39.4-0.00536-78.9-0.00747-118-0.00439-4.21 3.21e-4 -8.42 6.34e-4 -12.6 9.43e-4 -1.55 1.19e-4 -1.55 1.19e-4 -3.14 2.4e-4 -15.6 0.00113-31.2-1.84e-4 -46.7-0.00272-17.7-0.00287-35.4-0.00213-53.1 0.00328-9.89 0.00292-19.8 0.00315-29.7-6.46e-4 -6.63-0.00226-13.3-8.11e-4 -19.9 0.0035-3.76 0.00235-7.52 0.00325-11.3-4.06e-4 -54-1.35-54-1.35-106 9.13zm-316 143 1 2zm-5 18 1 2zm-5 22 1 2zm-5 29v6h1v-6h-1zm1460 0 1 2zm1 6 1 2zm3 30v6h1v-6h-1zm0 818v6h1v-6h-1zm-2 25 1 3z" fill="#FDFDFD"/>
<path transform="translate(791 399)" d="m0 0c18-0.529 35.8 1.05 53.7 2.72 2.44 0.226 4.89 0.443 7.33 0.646 0.991 0.0823 1.98 0.165 3 0.25 0.843 0.0671 1.69 0.134 2.55 0.203 2 0.261 2 0.261 4 1.26 1.43 0.157 2.87 0.276 4.31 0.375 5.38 0.483 10.5 1.66 15.7 2.93 3.31 0.767 6.62 1.22 9.98 1.69 1.64 0.453 3.27 0.91 4.9 1.39 2.35 0.687 4.7 1.35 7.06 2.02 1.8 0.512 3.61 1.02 5.41 1.54 0.895 0.252 1.79 0.504 2.71 0.764 26 7.4 51.4 18 74.9 31.3 1.37 0.748 2.73 1.49 4.1 2.24 15.5 8.48 30.1 17.6 44.1 28.4 2.43 1.84 4.91 3.59 7.4 5.34 10.4 7.57 19.9 16.4 29.3 25.2 2.81 2.62 5.67 5.16 8.55 7.7 3.53 3.17 6.69 6.29 9.5 10.1v2c0.556 0.21 1.11 0.42 1.68 0.637 3.13 1.84 5.13 4.4 7.38 7.18 0.979 1.19 1.96 2.37 2.94 3.55 0.498 0.606 0.995 1.21 1.51 1.83 1.41 1.7 2.85 3.38 4.3 5.06 6.58 7.59 12.5 15.5 18.2 23.7 0.626 0.874 1.25 1.75 1.9 2.65 4.71 6.58 8.95 13.4 13.1 20.4 0.412 0.686 0.824 1.37 1.25 2.08 8.97 15 8.97 15 12.5 22.3 1.02 2.11 2.06 4.19 3.13 6.27 4.23 8.24 8.01 16.5 11.3 25.2 0.945 2.48 1.91 4.95 2.87 7.42 0.716 1.85 1.43 3.7 2.14 5.55 0.333 0.859 0.666 1.72 1.01 2.6 1.93 5.06 3.63 10.1 5.13 15.3 0.654 2.19 1.39 4.34 2.17 6.49 1.72 5.04 2.72 10.2 3.75 15.4 0.682 3.32 0.682 3.32 1.77 6.39 0.983 2.98 1.52 5.79 1.97 8.88 0.466 3.16 1 6.08 1.96 9.13 1.63 5.5 2 11.2 2.6 16.9 0.251 2.29 0.502 4.58 0.754 6.88 0.117 1.07 0.235 2.14 0.356 3.24 0.593 5.9 0.593 5.9 1.85 11.7 0.63 2.92 0.606 5.68 0.608 8.67 0.00473 1.96 0.00473 1.96 0.00955 3.97-0.00179 1.43-0.00384 2.86-0.00613 4.28 6.74e-4 1.47 0.00165 2.94 0.0029 4.42 0.00147 3.09-6.66e-4 6.18-0.00534 9.27-0.00567 3.93-0.00244 7.87 0.00357 11.8 0.00364 3.04 0.00245 6.09-1.28e-4 9.13-6.62e-4 1.45 1.32e-4 2.9 0.00248 4.35 0.0266 21 0.0266 21-2.14 25.3-0.256 1.79-0.464 3.59-0.648 5.39-0.116 1.09-0.233 2.19-0.353 3.32-0.123 1.17-0.247 2.34-0.374 3.54-1.05 9.44-2.34 18.5-4.62 27.8-0.401 1.72-0.799 3.43-1.2 5.15-0.434 1.87-0.869 3.73-1.3 5.6-0.202 0.864-0.403 1.73-0.611 2.62-1.23 5.16-2.63 10.2-4.18 15.3-1.3 4.28-2.46 8.61-3.64 12.9-1.13 3.6-2.55 6.94-4.06 10.4-0.991 2.55-1.93 5.12-2.88 7.69-6.02 16.1-13.4 31.3-21.4 46.5-0.42 0.802-0.841 1.6-1.27 2.43-3.68 6.98-7.81 13.6-12.1 20.2-0.383 0.593-0.766 1.19-1.16 1.8-0.37 0.571-0.74 1.14-1.12 1.73-0.944 1.5-1.82 3.04-2.69 4.58-0.443 0.681-0.887 1.36-1.34 2.06h-2c-0.408 1.1-0.408 1.1-0.824 2.23-3.64 8.56-10.5 15.8-16.4 22.9-3.27 3.97-6.42 8-9.46 12.2-1.9 2.46-4.11 4.56-6.34 6.73-0.784 0.969-1.57 1.94-2.38 2.94-1.83 2.25-3.76 4.09-6 5.94-2.63 2.18-4.86 4.45-7.06 7.06-2.9 3.4-5.98 6.32-9.39 9.21-2.48 2.11-4.89 4.29-7.3 6.48-10.4 9.38-10.4 9.38-12.9 9.38-0.247 0.639-0.495 1.28-0.75 1.94-1.25 2.06-1.25 2.06-3.31 2.62-0.639 0.144-1.28 0.289-1.94 0.438-0.33 0.99-0.66 1.98-1 3-2.75 2-2.75 2-6 4-1.36 0.866-1.36 0.866-2.75 1.75-2.25 1.25-2.25 1.25-4.25 1.25-0.33 0.99-0.66 1.98-1 3-2.14 1.54-4.25 2.94-6.5 4.31-1.28 0.8-2.56 1.6-3.84 2.4-0.94 0.584-0.94 0.584-1.9 1.18-2.29 1.44-4.52 2.96-6.76 4.48-3.23 2.17-6.49 3.94-10 5.62-3.77 2.04-7.5 4.15-11.2 6.26-5.51 3.09-11.1 5.99-16.8 8.74-1.65 0.804-1.65 0.804-3.34 1.62-13 6.24-26.3 11.6-40.2 15.6-2.71 0.768-2.71 0.768-5.5 2.82-4.93 1.57-9.98 2.74-15 4-0.891 0.227-1.78 0.455-2.7 0.689-12.1 3.07-24.2 5.79-36.4 8-1.05 0.19-2.09 0.38-3.17 0.576-2.88 0.502-5.76 0.969-8.64 1.41-1.45 0.227-2.89 0.466-4.33 0.713-18.2 3.08-36.3 3.01-54.6 2.88-3.24-0.0193-6.49-0.0232-9.73-0.0267-3.88-0.00513-7.77-0.0196-11.7-0.0344-0.735-0.00188-1.47-0.00376-2.23-0.0057-2.06-0.00684-4.12-0.0205-6.18-0.0363-1.17-0.00683-2.34-0.0137-3.54-0.0207-2.74-0.14-2.74-0.14-4.74-1.14-1.92-0.268-3.85-0.488-5.79-0.684-1.17-0.123-2.34-0.246-3.55-0.373-2.46-0.251-4.92-0.501-7.38-0.75-5.89-0.621-11.6-1.34-17.4-2.74-3.63-0.863-7.32-1.34-11-1.89-3.09-0.6-5.91-1.56-8.89-2.56-3.41-0.764-6.84-1.44-10.3-2.12-3.53-0.831-6.86-1.87-10.3-3.05-2.62-0.89-5.25-1.73-7.89-2.55-1.4-0.439-1.4-0.439-2.82-0.887-1.91-0.599-3.82-1.19-5.73-1.79-5.15-1.62-10.1-3.43-15-5.61-1.85-0.669-3.69-1.34-5.54-1.99-7.78-2.77-14.9-6.2-22.1-10.2-3.36-1.83-6.74-3.4-10.2-4.91-11.8-5.15-23.2-11.6-33.6-19.2-3.62-2.56-7.36-4.9-11.1-7.25-1.8-1.13-3.58-2.3-5.35-3.48v-2c-1.35-0.373-1.35-0.373-2.72-0.754-3.46-1.31-5.16-2.63-7.78-5.18-4.07-3.82-8.27-7.29-12.7-10.7-4.32-3.33-8.39-6.68-12.1-10.7-1.7-1.73-3.47-3.29-5.31-4.86-4.68-4.07-9.06-8.4-13.4-12.8l-2.31-2.3c-4.75-4.76-9.26-9.65-13.6-14.8-0.936-1.08-1.87-2.16-2.81-3.24-5.01-5.84-9.77-11.7-14.2-18-2.1-2.94-4.27-5.81-6.46-8.68-26.5-35.3-26.5-35.3-26.5-45.1h-2c-8-15.7-8-15.7-8-20h-2c-3.12-6.6-5.58-13.3-7.89-20.2-1.41-4.26-1.41-4.26-4.11-7.77-0.544-1.88-1.01-3.78-1.44-5.69-0.893-4.02-2.08-7.56-3.75-11.3-1.65-4.05-2.75-8.29-3.93-12.5l-0.801-2.76c-1.4-4.91-2.5-9.66-3.07-14.7h-1c-0.99-6.27-1.98-12.5-3-19h-1c-0.99-8.58-1.98-17.2-3-26h-1c-3.04-37.7-2.87-74.8 3.52-112 0.446-2.64 0.865-5.28 1.27-7.93 2.58-16.6 7.02-32.6 12.4-48.6 1.32-4.03 2.51-8.1 3.72-12.2 1.16-3.51 2.58-6.83 4.06-10.2 0.964-2.44 1.92-4.87 2.88-7.31 2.41-6.07 5.11-11.9 8.12-17.7 1.06-2.14 2.13-4.29 3.19-6.44 2.93-5.87 5.95-11.7 9-17.5 0.416-0.793 0.832-1.59 1.26-2.4 2.43-4.61 4.94-9.15 7.55-13.7h2c0.258-0.701 0.516-1.4 0.781-2.12 4.01-9.45 10.5-17.7 16.8-25.7 2.29-2.93 4.48-5.92 6.64-8.95 2.9-4.02 5.96-7.79 9.28-11.5 1.31-1.47 2.55-2.99 3.78-4.53 1.75-2.19 1.75-2.19 3.18-3.61 1.58-1.58 3.01-3.23 4.45-4.95 2.59-3.03 5.18-5.93 8.12-8.62h2c0.247-0.619 0.495-1.24 0.75-1.88 1.49-2.53 2.69-2.84 5.25-4.12 0.293-0.608 0.585-1.22 0.887-1.84 1.3-2.52 2.76-3.84 4.93-5.66 0.714-0.606 1.43-1.21 2.16-1.84 1.56-1.28 3.13-2.54 4.71-3.79 2.39-1.87 2.39-1.87 4.64-4.23 27.9-27.6 27.9-27.6 37.7-27.6v-2c0.557-0.291 1.11-0.583 1.69-0.883 3.95-2.12 7.66-4.28 11.2-7.05 4.73-3.64 9.85-6.3 15.1-9.06 1.39-0.745 2.78-1.49 4.17-2.24 13.2-7.1 13.2-7.1 19.5-9.75 2.54-1.1 5.04-2.29 7.54-3.48 14.1-6.69 28.5-11.9 43.4-16.7 2.41-0.788 4.81-1.6 7.2-2.41 10.8-3.61 22.1-5.84 33.3-7.93 1.96-0.281 1.96-0.281 2.97-1.46 2.48-0.375 4.95-0.706 7.44-1 4.93-0.444 4.93-0.444 9.56-2 2.27-0.283 4.54-0.513 6.82-0.719 0.684-0.0626 1.37-0.125 2.07-0.19 2.22-0.202 4.45-0.397 6.67-0.592 0.757-0.0669 1.51-0.134 2.29-0.203 11.5-1.02 23-1.99 34.6-2.38zm-33.1 136c-2.15 0.355-4.3 0.665-6.46 0.955-5.7 0.715-5.7 0.715-11.2 2.36-3.57 1.41-7.2 2.17-10.9 3-9.35 2.15-17.9 5.05-26.8 8.81-2.69 1.13-5.39 2.2-8.11 3.25-5.12 2.04-10 4.44-14.9 7-0.84 0.441-1.68 0.882-2.55 1.34-11.2 5.99-22.1 12.4-32.2 20-2.27 1.63-2.27 1.63-4.38 2.66-2.09 1.07-3.25 2.3-4.89 3.96-1.78 1.31-3.57 2.6-5.38 3.88-3.9 2.8-7.32 5.63-10.6 9.12-0.949 0.763-1.9 1.53-2.88 2.31-4.89 4-8.76 9.02-12.8 13.9-2.38 2.81-2.38 2.81-4.68 5.09-2.91 2.94-5.6 6-8.26 9.16-0.703 0.821-0.703 0.821-1.42 1.66-5.48 5.84-5.48 5.84-8.02 12.9h-2c-1.26 1.6-1.26 1.6-2.46 3.69-0.472 0.781-0.944 1.56-1.43 2.37-0.49 0.827-0.98 1.65-1.48 2.51-0.723 1.2-0.723 1.2-1.46 2.42-12.2 20.4-23.4 41.3-29.4 64.4-0.642 2.34-1.39 4.58-2.21 6.85-1.67 4.82-2.58 9.78-3.5 14.8-0.905 4.87-0.905 4.87-2 5.96-0.286 1.84-0.515 3.68-0.719 5.53-0.128 1.12-0.255 2.24-0.387 3.39-0.13 1.18-0.26 2.36-0.395 3.57-0.256 2.32-0.517 4.65-0.781 6.97-0.171 1.55-0.171 1.55-0.346 3.14-0.373 2.39-0.373 2.39-1.37 3.39-0.14 2.87-0.213 5.72-0.238 8.6-0.00966 0.889-0.0193 1.78-0.0293 2.69-0.0251 2.92-0.0374 5.85-0.045 8.77-0.00295 0.992-0.0059 1.98-0.00894 3.01-0.0171 25.3 2.4 49.9 9.63 74.2 0.211 0.711 0.422 1.42 0.639 2.15 2.32 7.65 5.11 15.1 8.05 22.5 0.271 0.696 0.541 1.39 0.82 2.11 4.43 11.3 9.54 22.1 15.8 32.6 1.61 2.69 2.99 5.47 4.37 8.29h2c0.206 0.804 0.413 1.61 0.625 2.44 1.96 5.08 4.86 10.1 8.82 14 1.56 1.61 1.56 1.61 3.42 4.4 2.24 3.35 4.7 6.4 7.32 9.45 0.48 0.563 0.961 1.13 1.46 1.71 8.95 10.4 17.9 20.2 28.7 28.9 2.25 1.84 4.41 3.73 6.56 5.69 4.34 3.84 9.1 7.06 13.9 10.3 2.82 1.92 5.59 3.89 8.36 5.89 4.16 2.92 8.46 5.37 13 7.73 1.96 1.06 3.89 2.17 5.78 3.34 16.6 10.2 37.5 19.6 56.9 22.7 2.29 0.492 2.29 0.492 4.54 1.45 3.74 1.42 7.5 1.97 11.4 2.61 8.07 1.31 8.07 1.31 10.3 2.44 3.11 0.314 6.23 0.511 9.35 0.719 2.65 0.281 2.65 0.281 3.65 1.28 10.3 1.3 20.7 1.16 31.1 1.13 2.57-0.00538 5.14-1.06e-5 7.71 0.00635 13.2 0.0945 13.2 0.0945 26.2-1.14 0.33-0.33 0.66-0.66 1-1 1.94-0.346 3.88-0.636 5.83-0.902l3.61-0.51c2.52-0.348 5.05-0.694 7.57-1.04 1.2-0.17 2.4-0.339 3.63-0.514 1.1-0.151 2.2-0.301 3.33-0.457 2.91-0.555 5.32-1.42 8.03-2.58 3.43-0.783 6.88-1.45 10.3-2.12 4.06-0.973 7.79-2.36 11.7-3.88 1.27-0.468 2.55-0.933 3.82-1.39 8.6-3.14 16.9-6.6 25.2-10.6 0.895-0.433 1.79-0.866 2.71-1.31 5.53-2.72 10.9-5.66 16.3-8.69 1.69-0.939 3.37-1.88 5.06-2.81 1.13-0.628 1.13-0.628 2.29-1.27 0.545-0.303 1.09-0.606 1.65-0.918v-2c1.29-0.356 1.29-0.356 2.61-0.719 3.78-1.43 6.39-3.3 9.57-5.78 5.78-4.48 5.78-4.48 8.81-6.5v-2c0.536-0.227 1.07-0.454 1.62-0.688 3.2-1.77 5.67-3.85 8.38-6.31v-2c0.732-0.241 1.46-0.482 2.22-0.73 3.15-1.44 4.89-3.08 7.28-5.58 0.784-0.812 1.57-1.62 2.38-2.46l2.12-2.23c0.825-0.804 1.65-1.61 2.5-2.44 2.45-2.51 4.86-5.05 7.25-7.62 0.779-0.837 1.56-1.67 2.36-2.54 2-2.2 2-2.2 2.41-4.59 0.16-0.599 0.32-1.2 0.484-1.82 1.33-0.672 2.66-1.34 4-2 2.2-2.5 2.2-2.5 4.31-5.5 0.393-0.54 0.786-1.08 1.19-1.64 1.17-1.62 2.33-3.24 3.5-4.86 0.602-0.821 1.2-1.64 1.82-2.49 5.2-7.21 9.7-14.8 14.2-22.5 0.498-0.849 0.995-1.7 1.51-2.57 4.98-8.72 8.76-17.9 12.3-27.3 1.07-2.81 2.18-5.6 3.32-8.39 5.72-14.3 9.09-29 11.6-44.2 0.235-1.43 0.235-1.43 0.475-2.89 0.137-0.858 0.274-1.72 0.415-2.6 0.417-2.1 0.417-2.1 1.42-4.1 3.32-24.6 3.84-51.4 0-76-0.33-0.33-0.66-0.66-1-1-0.249-1.38-0.443-2.77-0.613-4.16-0.112-0.868-0.223-1.74-0.338-2.63-0.119-0.934-0.238-1.87-0.361-2.83-1.22-9.07-3.07-17.6-5.69-26.4-0.339-1.2-0.678-2.4-1.03-3.63-0.766-2.65-1.58-5.26-2.47-7.87-1.29-3.81-2.43-7.63-3.5-11.5h-2c-0.129-0.714-0.258-1.43-0.391-2.16-2.86-13.3-10.5-24.8-17.2-36.4-1.57-2.77-3.01-5.57-4.39-8.44h-2c-0.278-0.743-0.557-1.48-0.844-2.25-6.38-15.2-20.3-28.9-31.8-40.4-1.95-1.97-3.71-3.96-5.46-6.11-4.41-5.09-9.59-9.12-14.9-13.2-0.812-0.643-1.62-1.29-2.46-1.95-7.19-6.59-7.19-6.59-15.5-10.1-0.33-0.99-0.66-1.98-1-3-2.31-1.57-4.58-2.99-7-4.38-0.688-0.402-1.38-0.804-2.09-1.22-1.97-1.14-3.94-2.28-5.91-3.41-0.803-0.468-1.61-0.936-2.43-1.42-6.7-3.82-13.7-7.18-20.6-10.6-1.38-0.684-2.75-1.38-4.12-2.07-3.41-1.74-6.71-3.36-10.4-4.48-2.74-0.866-5.38-1.78-8.06-2.81-16-6.03-32.5-10.2-49.3-12.7-5.94-0.86-5.94-0.86-8.12-1.95-10.7-1.39-21.6-1.24-32.3-1.25-1.32-0.00251-1.32-0.00251-2.67-0.00507-13.4-0.00152-26.5 0.668-39.7 2.87zm-349 178 1 2zm654 45 1 3zm3 54 1 3zm-666 1 1 3zm1 16 1 3zm662 11 1 2z" fill="#FDFDFD"/>
<path transform="translate(1282,279)" d="m0 0c1.68 0.944 3.37 1.88 5.06 2.81 1.31 0.729 2.62 1.46 3.94 2.19v2c0.531 0.218 1.06 0.436 1.61 0.66 9.73 5.45 17.3 15.2 23.4 24.3 0.53 0.69 1.06 1.38 1.61 2.09 5.33 7.14 7.7 15.5 10.4 23.9 0.333 1 0.665 2.01 1.01 3.04 2.81 8.81 3.15 17.3 3.12 26.5 0.00387 0.994 0.00773 1.99 0.0117 3.01-0.0203 15.4-0.0203 15.4-2.14 17.5-0.371 1.83-0.371 1.83-0.75 3.69-3.17 14.6-9.64 26.8-18.6 38.6-0.433 0.574-0.865 1.15-1.31 1.74-1.07 1.38-2.22 2.7-3.38 4.01h-2c-0.202 0.552-0.405 1.1-0.613 1.67-1.93 3.24-4.63 5.3-7.57 7.58-0.931 0.722-0.931 0.722-1.88 1.46-19.1 14.4-43 21.4-66.9 20.3-0.66-0.33-1.32-0.66-2-1-1.42-0.217-2.84-0.392-4.26-0.543-15.2-1.77-27.6-5.4-40.7-13.5v-2c-0.825-0.165-1.65-0.33-2.5-0.5-4.21-1.8-6.49-4.21-9.57-7.53-1.88-2.03-1.88-2.03-4.17-3.6-0.87-0.679-0.87-0.679-1.76-1.37v-2c-0.859-0.348-0.859-0.348-1.73-0.703-11-6.3-19.7-24.7-23.3-36.3-0.795-3.32-1.46-6.63-2-10h-1c-4.91-27.5 1.12-53.9 15.8-77.4 1.26-1.73 2.66-3.11 4.18-4.62 1.24-1.57 2.47-3.16 3.69-4.75 6.35-7.97 13.9-13.6 22.3-19.2 0.623-0.442 1.25-0.884 1.89-1.34 28.7-19.5 71.1-18.5 100-0.66z" fill="#FDFDFD"/>
<path transform="translate(1160,132)" d="m0 0h8v1h-8v-1z" fill="#000102"/>
<path transform="translate(412,132)" d="m0 0h6v1h-6v-1z" fill="#000102"/>
<path transform="translate(533,775)" d="m0 0h1v5h-1v-5z" fill="#000102"/>
<path transform="translate(1596,1244)" d="m0 0 1 4z" fill="#000102"/>
<path transform="translate(1218,133)" d="m0 0 4 1z" fill="#000102"/>
<path transform="translate(830,534)" d="m0 0c3 1 3 1 3 1z" fill="#000102"/>
<path transform="translate(1247,1596)" d="m0 0 2 1z" fill="#000102"/>
</svg>
